#
mtllib cube.mtl
usemtl ff8faf8f
v 2.000000e-01 0.000000e+00 8.000000e-01
v -6.000000e-01 0.000000e+00 8.000000e-01
v 2.000000e-01 -8.000000e-01 8.000000e-01
v -6.000000e-01 -8.000000e-01 8.000000e-01
vn 0.000000 0.000000 1.000000
vn 0.000000 0.000000 1.000000
vn 0.000000 0.000000 1.000000
vn 0.000000 0.000000 1.000000
f -4//-4 -3//-3 -2//-2
f -2//-2 -3//-3 -1//-1
v -6.000000e-01 -8.000000e-01 0.000000e+00
v -6.000000e-01 0.000000e+00 0.000000e+00
v 2.000000e-01 -8.000000e-01 0.000000e+00
v 2.000000e-01 0.000000e+00 0.000000e+00
vn -0.000000 -0.000000 -1.000000
vn -0.000000 -0.000000 -1.000000
vn -0.000000 -0.000000 -1.000000
vn -0.000000 -0.000000 -1.000000
f -4//-4 -3//-3 -2//-2
f -2//-2 -3//-3 -1//-1
v -6.000000e-01 -8.000000e-01 8.000000e-01
v -6.000000e-01 -8.000000e-01 0.000000e+00
v 2.000000e-01 -8.000000e-01 8.000000e-01
v 2.000000e-01 -8.000000e-01 0.000000e+00
vn -0.000000 -1.000000 -0.000000
vn -0.000000 -1.000000 -0.000000
vn -0.000000 -1.000000 -0.000000
vn -0.000000 -1.000000 -0.000000
f -4//-4 -3//-3 -2//-2
f -2//-2 -3//-3 -1//-1
v -6.000000e-01 0.000000e+00 8.000000e-01
v -6.000000e-01 0.000000e+00 0.000000e+00
v -6.000000e-01 -8.000000e-01 8.000000e-01
v -6.000000e-01 -8.000000e-01 0.000000e+00
vn -1.000000 -0.000000 -0.000000
vn -1.000000 -0.000000 -0.000000
vn -1.000000 -0.000000 -0.000000
vn -1.000000 -0.000000 -0.000000
f -4//-4 -3//-3 -2//-2
f -2//-2 -3//-3 -1//-1
v 2.000000e-01 0.000000e+00 8.000000e-01
v 2.000000e-01 0.000000e+00 0.000000e+00
v -6.000000e-01 0.000000e+00 8.000000e-01
v -6.000000e-01 0.000000e+00 0.000000e+00
vn 0.000000 1.000000 0.000000
vn 0.000000 1.000000 0.000000
vn 0.000000 1.000000 0.000000
vn 0.000000 1.000000 0.000000
f -4//-4 -3//-3 -2//-2
f -2//-2 -3//-3 -1//-1
v 2.000000e-01 0.000000e+00 8.000000e-01
v 2.000000e-01 -8.000000e-01 8.000000e-01
v 2.000000e-01 0.000000e+00 0.000000e+00
v 2.000000e-01 -8.000000e-01 0.000000e+00
vn 1.000000 0.000000 0.000000
vn 1.000000 0.000000 0.000000
vn 1.000000 0.000000 0.000000
vn 1.000000 0.000000 0.000000
f -4//-4 -3//-3 -2//-2
f -2//-2 -3//-3 -1//-1
