solid Created by Gmsh
facet normal 0 -1 -0
  outer loop
    vertex 1.9 0.1 0.9
    vertex 0.1 0.1 0.1
    vertex 1.9 0.1 0.1
  endloop
endfacet
facet normal -0 -1 0
  outer loop
    vertex 1.9 0.1 0.9
    vertex 0.1 0.1 0.9
    vertex 0.1 0.1 0.1
  endloop
endfacet
facet normal -1 0 0
  outer loop
    vertex 0 0 1
    vertex 0 1 1
    vertex 0 1 0
  endloop
endfacet
facet normal -1 0 0
  outer loop
    vertex 0 0 1
    vertex 0 1 0
    vertex 0 0 0
  endloop
endfacet
facet normal 0 -1 -0
  outer loop
    vertex 2 0 1
    vertex 0 0 0
    vertex 2 0 0
  endloop
endfacet
facet normal -0 -1 0
  outer loop
    vertex 2 0 1
    vertex 0 0 1
    vertex 0 0 0
  endloop
endfacet
facet normal 0 0 1
  outer loop
    vertex 2 1 1
    vertex 0 1 1
    vertex 0 0 1
  endloop
endfacet
facet normal 0 0 1
  outer loop
    vertex 2 1 1
    vertex 0 0 1
    vertex 2 0 1
  endloop
endfacet
facet normal 0 1 0
  outer loop
    vertex 0.1 1 0.9
    vertex 0 1 0
    vertex 0 1 1
  endloop
endfacet
facet normal 0 1 0
  outer loop
    vertex 0.1 1 0.9
    vertex 0.1 1 0.1
    vertex 0 1 0
  endloop
endfacet
facet normal 0 1 0
  outer loop
    vertex 1.9 1 0.1
    vertex 2 1 0
    vertex 0 1 0
  endloop
endfacet
facet normal 0 1 0
  outer loop
    vertex 1.9 1 0.1
    vertex 0 1 0
    vertex 0.1 1 0.1
  endloop
endfacet
facet normal 0 1 0
  outer loop
    vertex 2 1 1
    vertex 1.9 1 0.9
    vertex 0.1 1 0.9
  endloop
endfacet
facet normal 0 1 0
  outer loop
    vertex 2 1 1
    vertex 1.9 1 0.1
    vertex 1.9 1 0.9
  endloop
endfacet
facet normal 0 1 0
  outer loop
    vertex 2 1 1
    vertex 2 1 0
    vertex 1.9 1 0.1
  endloop
endfacet
facet normal 0 1 0
  outer loop
    vertex 2 1 1
    vertex 0.1 1 0.9
    vertex 0 1 1
  endloop
endfacet
facet normal -0 0 -1
  outer loop
    vertex 2 1 0
    vertex 0 0 0
    vertex 0 1 0
  endloop
endfacet
facet normal 0 -0 -1
  outer loop
    vertex 2 1 0
    vertex 2 0 0
    vertex 0 0 0
  endloop
endfacet
facet normal 1 -0 0
  outer loop
    vertex 2 0 1
    vertex 2 1 0
    vertex 2 1 1
  endloop
endfacet
facet normal 1 0 0
  outer loop
    vertex 2 0 1
    vertex 2 0 0
    vertex 2 1 0
  endloop
endfacet
facet normal -0 0 -1
  outer loop
    vertex 1.9 1 0.9
    vertex 0.1 0.1 0.9
    vertex 0.1 1 0.9
  endloop
endfacet
facet normal 0 -0 -1
  outer loop
    vertex 1.9 1 0.9
    vertex 1.9 0.1 0.9
    vertex 0.1 0.1 0.9
  endloop
endfacet
facet normal -1 0 0
  outer loop
    vertex 1.9 0.1 0.9
    vertex 1.9 1 0.9
    vertex 1.9 1 0.1
  endloop
endfacet
facet normal -1 0 0
  outer loop
    vertex 1.9 0.1 0.9
    vertex 1.9 1 0.1
    vertex 1.9 0.1 0.1
  endloop
endfacet
facet normal 0 0 1
  outer loop
    vertex 1.9 1 0.1
    vertex 0.1 1 0.1
    vertex 0.1 0.1 0.1
  endloop
endfacet
facet normal 0 0 1
  outer loop
    vertex 1.9 1 0.1
    vertex 0.1 0.1 0.1
    vertex 1.9 0.1 0.1
  endloop
endfacet
facet normal 1 -0 0
  outer loop
    vertex 0.1 0.1 0.9
    vertex 0.1 1 0.1
    vertex 0.1 1 0.9
  endloop
endfacet
facet normal 1 0 0
  outer loop
    vertex 0.1 0.1 0.9
    vertex 0.1 0.1 0.1
    vertex 0.1 1 0.1
  endloop
endfacet
endsolid Created by Gmsh
