<?xml version="1.0" encoding="UTF-8" standalone="no"?>
<!-- Created with Inkscape (http://www.inkscape.org/) -->

<svg
   width="210mm"
   height="297mm"
   viewBox="0 0 210 297"
   version="1.1"
   id="svg19959"
   inkscape:version="1.1.2 (0a00cf5339, 2022-02-04)"
   sodipodi:docname="logo.svg"
   xmlns:inkscape="http://www.inkscape.org/namespaces/inkscape"
   xmlns:sodipodi="http://sodipodi.sourceforge.net/DTD/sodipodi-0.dtd"
   xmlns="http://www.w3.org/2000/svg"
   xmlns:svg="http://www.w3.org/2000/svg">
  <sodipodi:namedview
     id="namedview19961"
     pagecolor="#505050"
     bordercolor="#eeeeee"
     borderopacity="1"
     inkscape:pageshadow="0"
     inkscape:pageopacity="0"
     inkscape:pagecheckerboard="0"
     inkscape:document-units="mm"
     showgrid="false"
     inkscape:zoom="0.64052329"
     inkscape:cx="397.33138"
     inkscape:cy="560.47923"
     inkscape:window-width="1920"
     inkscape:window-height="1085"
     inkscape:window-x="0"
     inkscape:window-y="29"
     inkscape:window-maximized="1"
     inkscape:current-layer="layer1" />
  <defs
     id="defs19956" />
  <g
     inkscape:label="Layer 1"
     inkscape:groupmode="layer"
     id="layer1">
    <g
       id="g19811"
       inkscape:export-filename="/home/jorge/ansys/pyaedt/doc/source/_static/logo.png"
       inkscape:export-xdpi="96"
       inkscape:export-ydpi="96"
       transform="translate(-14.547685,-65.595952)">
      <text
         xml:space="preserve"
         style="font-style:normal;font-variant:normal;font-weight:bold;font-stretch:normal;font-size:37.1518px;line-height:1.25;font-family:'DejaVu Sans';-inkscape-font-specification:'DejaVu Sans Bold';letter-spacing:0px;stroke:#ffffff;stroke-width:0.877602;stroke-dasharray:none;stroke-opacity:1"
         x="74.868843"
         y="194.26222"
         id="text4986"
         transform="scale(0.9705017,1.0303949)"><tspan
           sodipodi:role="line"
           id="tspan4984"
           x="74.868843"
           y="194.26222"
           style="font-style:normal;font-variant:normal;font-weight:bold;font-stretch:normal;font-size:37.1518px;font-family:'DejaVu Sans';-inkscape-font-specification:'DejaVu Sans Bold';stroke:#ffffff;stroke-width:0.877602;stroke-dasharray:none;stroke-opacity:1">PyAEDT</tspan></text>
      <g
         id="g19799"
         transform="matrix(0.72714897,0,0,0.72714897,7.9050857,15.334999)">
        <path
           id="path0"
           d="m 23.336287,209.37154 c -20.73275,7.74541 -30.359614,27.1481 -21.863314,44.06503 4.332287,8.62595 13.492691,16.02264 23.692908,19.13096 l 1.223698,0.3728 0.845079,-1.6809 c 0.464873,-0.92445 1.070504,-2.19075 1.345935,-2.81358 l 0.500857,-1.13268 -1.953948,-0.77337 C 17.214887,262.61655 9.947048,253.92843 8.489723,244.26082 6.655102,232.08814 14.499204,219.72865 27.223281,214.7439 c 0.989542,-0.38761 1.824567,-0.71728 1.855788,-0.73263 0.209285,-0.10266 -2.651125,-5.57847 -2.914121,-5.57821 -0.174625,0 -1.447536,0.42228 -2.828661,0.93848 m 26.327365,1.78964 c -0.747448,1.50918 -1.316038,2.77918 -1.263386,2.82178 0.05239,0.0429 0.667015,0.3003 1.365515,0.5723 25.852699,10.06792 25.755599,42.03858 -0.15875,52.27346 -0.669396,0.26432 -1.217083,0.50721 -1.217083,0.53922 0,0.0844 2.550054,5.47635 2.625725,5.55202 0.172508,0.17224 4.797689,-1.61184 7.280539,-2.80855 25.465348,-12.27402 27.911688,-41.10937 4.773877,-56.26868 -3.091127,-2.02485 -10.551318,-5.42581 -11.902546,-5.42581 -0.07964,0 -0.756443,1.23481 -1.503891,2.74426 m -23.805621,0.66358 c 0.300831,0.59346 0.516731,1.10066 0.479954,1.12686 -0.03704,0.0262 -0.591079,0.26458 -1.231371,0.52996 -3.413125,1.41472 -7.410185,4.18518 -10.371666,7.18926 -14.35867297,14.56584 -9.805988,37.36684 9.313333,46.64366 1.222375,0.59319 2.250546,1.09775 2.285206,1.12156 0.396875,0.27279 -0.982662,2.01639 -1.511829,1.91056 -1.060185,-0.21219 -5.067565,-1.99311 -7.091892,-3.15198 C -4.502907,254.46739 -5.545365,229.1166 15.6004,215.40907 c 2.634456,-1.70762 8.05471,-4.31853 9.661525,-4.65349 0.02699,-0.006 0.295275,0.47545 0.596106,1.06918 m 28.201937,-0.36725 c 17.423078,6.72942 26.641422,22.59198 21.715412,37.36684 -3.067843,9.20195 -11.878203,17.55458 -22.540382,21.36961 l -1.18745,0.42492 -0.48895,-1.04378 c -0.268817,-0.57389 -0.448734,-1.07765 -0.40005,-1.11919 0.04895,-0.0413 1.334558,-0.71279 2.857235,-1.49172 21.234397,-10.86432 23.062407,-37.47876 3.475831,-50.60553 -1.661054,-1.11311 -5.136091,-2.98636 -6.195218,-3.33931 -0.230982,-0.077 0.582347,-2.27409 0.841904,-2.27409 0.0426,0 0.907521,0.32041 1.921668,0.71225 m -25.928108,5.52001 c -15.783454,5.73193 -23.156333,20.16336 -16.889148,33.05916 3.09245,6.36349 8.811154,11.27548 16.447559,14.12795 2.711714,1.01283 2.465122,1.12792 3.826933,-1.78647 l 1.193271,-2.55402 -0.679979,-0.23495 c -18.993644,-6.56828 -19.191023,-30.64113 -0.309298,-37.72905 0.552979,-0.20744 1.005416,-0.41355 1.005416,-0.45773 0,-0.12594 -2.537089,-5.15514 -2.594504,-5.14324 -0.02831,0.006 -0.928423,0.32914 -2.00025,0.71835 m 17.828419,1.85658 c -0.659606,1.39409 -1.1684,2.56434 -1.131094,2.60032 0.03757,0.0363 0.927894,0.43577 1.97829,0.88794 17.7419,7.63614 17.250039,30.22204 -0.805657,37.00066 -0.556683,0.20902 -1.056216,0.45085 -1.109662,0.53763 -0.128323,0.20744 2.213504,5.07127 2.44131,5.07127 1.994165,0 8.885238,-3.63617 12.335405,-6.50875 15.458809,-12.87145 9.370747,-35.34224 -11.311996,-41.75283 l -1.197504,-0.37095 -1.199092,2.53471 m -16.332994,0.72152 c 0.201083,0.42201 0.337873,0.79189 0.303742,0.82206 -0.03413,0.0302 -0.823913,0.43841 -1.755246,0.90672 -12.114477,6.09389 -16.213138,20.08294 -9.054306,30.90281 1.937543,2.92841 5.56551,6.07139 8.99795,7.79542 l 1.858698,0.93345 -0.325702,0.77999 c -0.179388,0.42889 -0.358511,0.81227 -0.398198,0.85196 -0.320675,0.32094 -5.101696,-2.00845 -7.726892,-3.76449 -16.068675,-10.74817 -13.151644,-31.57035 5.498835,-39.25226 2.204509,-0.90779 2.156355,-0.90832 2.601119,0.0243 m 22.473444,0.80777 c 18.631429,9.09955 19.232298,29.8995 1.157552,40.06771 -1.206765,0.67892 -4.86754,2.25081 -4.96861,2.13333 -0.113507,-0.13176 -0.74639,-1.42372 -0.74639,-1.52347 0,-0.0561 0.853017,-0.55166 1.895475,-1.1012 15.511727,-8.1788 16.760031,-27.609 2.385483,-37.134 -1.196181,-0.79269 -2.690812,-1.65497 -3.32105,-1.91611 l -1.14591,-0.47493 0.424656,-0.83238 c 0.532606,-1.04378 0.611981,-1.02949 4.318794,0.78105 m -20.102248,3.10515 c -16.395965,5.63827 -18.960042,23.77414 -4.563533,32.27837 1.576387,0.93134 4.33996,2.10503 5.50492,2.33786 0.521494,0.10425 2.538413,-3.13187 2.538413,-4.07299 0,-0.0349 -0.690563,-0.42307 -1.534583,-0.86281 -10.103909,-5.26256 -10.013686,-19.48233 0.15875,-25.06001 0.6985,-0.38312 1.306777,-0.72443 1.35202,-0.75883 0.113507,-0.0865 -1.925372,-4.30979 -2.07645,-4.30106 -0.0672,0.004 -0.687916,0.20161 -1.379537,0.43947 m 10.981796,1.57903 c -1.169459,2.51963 -1.2192,2.24976 0.587639,3.19908 8.270346,4.34605 10.025592,15.47257 3.493559,22.14589 -1.380596,1.41049 -4.124325,3.32105 -4.769379,3.32105 -0.442119,0 -0.276755,0.59452 0.714375,2.56778 1.116806,2.22356 0.957527,2.18043 3.820847,1.03399 14.582246,-5.83882 17.01165,-22.42899 4.525963,-30.90571 -1.879071,-1.27556 -6.462448,-3.38773 -7.351977,-3.38773 -0.04445,0 -0.504031,0.91149 -1.021027,2.02565 m -10.279327,0.8763 c 0.222779,0.42863 0.149754,0.52838 -0.871009,1.18772 -9.869487,6.37672 -9.865254,20.58167 0.0082,27.08407 0.903817,0.59531 1.018117,0.74851 0.865982,1.1602 -0.242888,0.65669 -0.432594,0.61807 -2.835011,-0.57653 -12.212108,-6.07192 -13.344789,-19.83978 -2.2225,-27.01316 1.32715,-0.85593 4.668044,-2.50164 4.778375,-2.35374 0.01799,0.0241 0.142082,0.25427 0.275961,0.51144 m 15.477333,0.92578 c 10.012098,5.18636 12.319265,16.14488 5.017294,23.83181 -2.62255,2.76093 -7.695671,5.69119 -8.336227,4.81489 -0.404284,-0.55271 -0.404548,-0.55218 1.061243,-1.51606 9.401175,-6.18093 9.387682,-20.57188 -0.02487,-26.66709 -0.665428,-0.43074 -1.249098,-0.81015 -1.297253,-0.84323 -0.04789,-0.0328 0.01984,-0.29474 0.150813,-0.58208 0.278077,-0.61039 0.531019,-0.53949 3.429,0.96176"
           stroke="none"
           fill="#000000"
           fill-rule="evenodd"
           style="fill:#fbb519;fill-opacity:1;stroke-width:0.264583" />
        <path
           style="fill:#fbb519;fill-opacity:1;stroke-width:1.19098"
           d="m 83.832244,1025.2773 c -42.517566,-17.2155 -73.46305,-48.91542 -85.2334558,-87.31151 -2.8752772,-9.37941 -3.2065686,-12.30293 -3.2065686,-28.29676 0,-15.99004 0.3316774,-18.91855 3.2037203,-28.28692 11.7822921,-38.43289 42.3437341,-70.05473 84.0471941,-86.96341 16.830186,-6.8238 15.617887,-7.00781 21.268316,3.22826 5.07724,9.19769 5.80464,11.54229 3.58093,11.54229 -2.58092,0 -21.111388,9.30808 -28.557881,14.34498 -33.391587,22.58646 -52.419597,61.34914 -47.660809,97.09163 1.479657,11.11346 5.212268,23.53862 9.753778,32.46849 11.478397,22.56971 34.536409,43.81601 58.165995,53.59575 4.958547,2.0523 9.183117,3.8822 9.387947,4.0666 0.89229,0.803 -9.463458,19.6054 -10.790397,19.5915 -0.810213,-0.01 -7.091659,-2.2904 -13.958769,-5.0709 z m 14.727114,-6.1683 c 1.056234,-1.612 1.920422,-3.37 1.920422,-3.9067 0,-0.5366 -3.611919,-2.7567 -8.026489,-4.9334 -40.311781,-19.87675 -65.402637,-55.4015 -67.693495,-95.84343 -1.702144,-30.049 10.535135,-59.36081 34.257343,-82.05618 11.006977,-10.53054 19.957349,-16.85776 32.52597,-22.99337 4.588165,-2.2398 8.498831,-4.20203 8.690361,-4.36051 1.03425,-0.8558 -4.050356,-8.9055 -5.622197,-8.9008 -3.200565,0.01 -30.297964,13.72167 -39.837923,20.15917 -25.036238,16.89427 -43.829735,42.21793 -50.7796154,68.42395 -3.56879989,13.45693 -3.55825725,36.58641 0.022735,49.87842 9.6513454,35.82409 37.7281244,65.68335 78.5027184,83.48665 10.836492,4.7315 13.51116,4.9059 16.04017,1.0462 z"
           id="path15186"
           transform="scale(0.26458333)" />
        <path
           style="fill:#fbb519;fill-opacity:1;stroke-width:1.19098"
           d="M 101.05231,996.09416 C 74.016791,984.83904 55.405787,968.39739 44.024518,945.71368 37.03369,931.78044 34.621335,920.48456 35.345299,905.07312 c 0.982591,-20.91699 9.365994,-38.95719 25.787307,-55.49159 12.769791,-12.85772 27.128278,-22.02957 44.891784,-28.67575 7.84442,-2.93497 7.49399,-3.16203 13.60414,8.81485 l 3.49799,6.85661 -2.70232,1.02855 c -25.875532,9.84867 -44.385139,28.68949 -51.298042,52.21595 -6.976033,23.74132 -0.603696,50.73876 16.241383,68.80926 8.232744,8.83164 21.378719,18.00562 30.503059,21.28668 3.30724,1.18927 5.98505,2.72547 5.95069,3.41378 -0.1117,2.238 -7.63249,16.60955 -8.85585,16.92274 -0.65401,0.1675 -6.01492,-1.70457 -11.91313,-4.16004 z m 11.1277,-5.6216 c 0.75899,-1.6658 1.37998,-3.50947 1.37998,-4.09706 0,-0.58757 -3.68023,-3.00222 -8.1783,-5.36588 -16.67805,-8.76407 -30.438167,-22.63429 -37.743494,-38.04551 -5.50987,-11.62355 -7.588149,-20.74256 -7.588149,-33.29508 0,-19.9008 7.168125,-37.90896 21.076298,-52.94902 7.715231,-8.34312 20.712445,-17.9929 28.679115,-21.2928 4.05413,-1.67928 4.41858,-2.56042 2.52358,-6.10126 -1.8811,-3.51487 -5.63414,-2.81239 -17.888199,3.34822 -21.246621,10.68154 -35.778253,24.54375 -44.563569,42.51068 -18.609945,38.05936 -6.358119,78.08813 31.786695,103.85246 5.24766,3.54446 26.649473,14.46397 28.348793,14.46397 0.433,0 1.40826,-1.36292 2.16725,-3.02872 z"
           id="path15225"
           transform="scale(0.26458333)" />
        <path
           style="fill:#fbb519;fill-opacity:1;stroke-width:1.19098"
           d="M 118.28213,972.7753 C 85.573169,960.61118 64.768168,930.20919 69.46684,901.44235 c 3.649552,-22.34377 18.579811,-40.76952 41.9334,-51.7509 14.96003,-7.03454 14.23515,-7.05662 17.96438,0.54713 1.77162,3.61226 3.22113,7.01649 3.22113,7.56494 0,0.54846 -3.45081,3.22888 -7.66848,5.9565 -17.42652,11.26996 -26.854251,30.1613 -25.28463,50.66545 1.43713,18.77338 11.76663,33.99699 29.86297,44.01201 l 4.32426,2.39316 -3.88979,6.50939 c -4.28384,7.16883 -5.48246,7.72814 -11.64795,5.43527 z m 5.72102,-7.94139 c 0.21938,-1.13916 -2.24823,-3.8566 -6.23611,-6.86749 -28.542573,-21.54984 -32.906299,-61.91252 -9.50723,-87.93791 3.08477,-3.43102 7.94722,-7.84716 10.80542,-9.81366 5.60746,-3.85803 7.08475,-8.21764 2.78462,-8.21764 -3.50404,0 -14.93728,6.04866 -23.161637,12.25347 -22.205624,16.7529 -29.596723,44.53507 -18.216989,68.47528 5.160365,10.85616 17.524555,23.00637 30.115996,29.59478 9.87414,5.1666 12.79939,5.71457 13.41593,2.51317 z"
           id="path15264"
           transform="scale(0.26458333)" />
        <path
           style="fill:#fbb519;fill-opacity:1;stroke-width:1.19098"
           d="m 163.15576,967.90908 c -1.77127,-3.61156 -3.22049,-6.95908 -3.22049,-7.43895 0,-0.47987 1.47153,-1.53033 3.27006,-2.33436 6.28337,-2.80898 16.54678,-11.94763 21.06808,-18.75924 17.16781,-25.8644 9.36568,-59.85601 -17.50075,-76.24575 -3.76056,-2.29411 -6.83739,-4.36464 -6.83739,-4.60119 0,-2.02739 6.55751,-14.85229 7.58737,-14.83906 0.73203,0.009 6.68195,2.60135 13.22206,5.75989 25.09065,12.11751 38.54199,28.63365 42.50339,52.18753 3.35524,19.94975 -7.40675,44.29327 -25.71771,58.17326 -7.68756,5.82729 -25.10426,14.66431 -28.90156,14.66431 -1.54995,0 -3.25711,-2.04822 -5.47306,-6.56644 z m 21.64817,-6.78386 c 8.70405,-5.09944 22.47208,-18.92608 26.63829,-26.75165 4.28376,-8.0464 7.13307,-21.66977 6.15739,-29.44031 -2.77581,-22.10741 -15.65276,-38.70951 -38.79802,-50.02185 -10.69314,-5.22632 -14.83995,-1.22871 -5.43658,5.24098 24.72108,17.00856 33.06229,50.2445 19.38413,77.23705 -3.56666,7.03847 -12.4043,16.99399 -19.29335,21.73378 -5.15165,3.54443 -6.57342,6.35742 -3.71036,7.34097 2.37249,0.81502 7.89887,-1.14435 15.0585,-5.33897 z"
           id="path15303"
           transform="scale(0.26458333)" />
        <path
           style="fill:#fbb519;fill-opacity:1;stroke-width:1.19098"
           d="m 174.54995,991.65857 c -3.57639,-7.30874 -4.15263,-9.33385 -2.79019,-9.80569 0.94438,-0.32707 6.49279,-2.98541 12.3298,-5.90742 24.90387,-12.46691 40.50714,-35.30208 42.10572,-61.6211 1.94598,-32.03876 -16.35423,-60.00883 -48.82563,-74.62518 -3.81831,-1.71873 -6.76136,-3.56337 -6.54011,-4.09918 6.55012,-15.86277 7.31611,-17.06189 10.40396,-16.28689 8.6395,2.16838 22.29841,8.50753 31.7558,14.73798 51.73631,34.08346 59.4628,97.40061 16.80044,137.67642 -8.02873,7.5796 -22.12729,16.90165 -34.77572,22.99391 -15.78174,7.60148 -15.20335,7.68798 -20.46407,-3.06285 z m 18.83705,-2.89968 c 36.54785,-15.55249 59.78789,-49.21439 57.7891,-83.70427 -1.78547,-30.80909 -20.28567,-55.71608 -54.0096,-72.71362 -11.55668,-5.82481 -15.13101,-6.45969 -16.97452,-3.01505 -1.93729,3.61986 -1.58182,4.19084 4.41732,7.0953 14.64665,7.09112 31.28169,22.55861 38.76215,36.04159 9.29538,16.75424 12.1459,38.13953 7.41609,55.6374 -5.53655,20.4824 -21.29876,40.44122 -40.87251,51.75456 -5.42048,3.13296 -10.03977,6.01356 -10.26509,6.40134 -0.89061,1.53271 1.72346,6.05603 3.49984,6.05603 1.03794,0 5.64469,-1.59897 10.23722,-3.55328 z"
           id="path15342"
           transform="scale(0.26458333)" />
        <path
           style="fill:#fbb519;fill-opacity:1;stroke:none;stroke-width:1.19098"
           d="m 188.44183,1020.6385 -4.70296,-9.7251 8.72247,-3.8467 c 39.18507,-17.28099 64.58878,-49.623 68.47393,-87.17561 2.78422,-26.91138 -4.71371,-51.97228 -22.02158,-73.60444 -10.26191,-12.82582 -22.75432,-22.45522 -40.59281,-31.28979 l -14.52979,-7.19593 4.7329,-9.41327 c 2.9802,-5.92731 5.44512,-9.41328 6.65612,-9.41328 2.62779,0 23.06883,8.76118 32.53443,13.9445 11.67659,6.39404 22.22467,14.12556 31.97999,23.44065 41.09549,39.24098 49.57901,93.69304 21.85296,140.26485 -7.05905,11.85717 -27.05399,32.48313 -39.58474,40.83402 -13.23529,8.8204 -42.51588,22.9053 -47.61702,22.9053 -0.66051,0 -3.31727,-4.3763 -5.9039,-9.7252 z m 19.99421,-1.6792 c 49.88963,-20.6519 83.39761,-64.31558 83.47481,-108.7746 0.0764,-44.02801 -31.49209,-87.26908 -78.79976,-107.93615 -16.05419,-7.01352 -16.92451,-7.13022 -18.54334,-2.48643 -0.73557,2.11006 -1.3374,4.26653 -1.3374,4.79215 0,0.52563 4.78996,3.42961 10.64437,6.45329 38.30392,19.7832 61.80301,54.101 63.89429,93.31048 2.27833,42.71648 -22.29519,82.33846 -64.77189,104.43726 -5.37172,2.7947 -9.76677,5.8316 -9.76677,6.7488 0,2.4751 2.59979,7.7249 3.82551,7.7249 0.58605,0 5.70713,-1.9214 11.38018,-4.2697 z"
           id="path15381"
           transform="scale(0.26458333)" />
      </g>
    </g>
  </g>
</svg>
