  0
SECTION
  2
HEADER
  9
$ACADVER
  1
AC1012
  9
$DWGCODEPAGE
  3
ansi_1252
  9
$INSBASE
 10
0.0
 20
0.0
 30
0.0
  9
$EXTMIN
 10
1.000000000000000E+20
 20
1.000000000000000E+20
 30
1.000000000000000E+20
  9
$EXTMAX
 10
-1.000000000000000E+20
 20
-1.000000000000000E+20
 30
-1.000000000000000E+20
  9
$LIMMIN
 10
0.0
 20
0.0
  9
$LIMMAX
 10
12.0
 20
9.0
  9
$ORTHOMODE
 70
     0
  9
$REGENMODE
 70
     1
  9
$FILLMODE
 70
     1
  9
$QTEXTMODE
 70
     0
  9
$MIRRTEXT
 70
     1
  9
$DRAGMODE
 70
     2
  9
$LTSCALE
 40
1.0
  9
$OSMODE
 70
    37
  9
$ATTMODE
 70
     1
  9
$TEXTSIZE
 40
0.2
  9
$TRACEWID
 40
0.05
  9
$TEXTSTYLE
  7
STANDARD
  9
$CLAYER
  8
0
  9
$CELTYPE
  6
BYLAYER
  9
$CECOLOR
 62
   256
  9
$CELTSCALE
 40
1.0
  9
$DELOBJ
 70
     1
  9
$DISPSILH
 70
     0
  9
$DIMSCALE
 40
1.0
  9
$DIMASZ
 40
0.18
  9
$DIMEXO
 40
0.0625
  9
$DIMDLI
 40
0.38
  9
$DIMRND
 40
0.0
  9
$DIMDLE
 40
0.0
  9
$DIMEXE
 40
0.18
  9
$DIMTP
 40
0.0
  9
$DIMTM
 40
0.0
  9
$DIMTXT
 40
0.18
  9
$DIMCEN
 40
0.09
  9
$DIMTSZ
 40
0.0
  9
$DIMTOL
 70
     0
  9
$DIMLIM
 70
     0
  9
$DIMTIH
 70
     1
  9
$DIMTOH
 70
     1
  9
$DIMSE1
 70
     0
  9
$DIMSE2
 70
     0
  9
$DIMTAD
 70
     0
  9
$DIMZIN
 70
     0
  9
$DIMBLK
  1

  9
$DIMASO
 70
     1
  9
$DIMSHO
 70
     1
  9
$DIMPOST
  1

  9
$DIMAPOST
  1

  9
$DIMALT
 70
     0
  9
$DIMALTD
 70
     2
  9
$DIMALTF
 40
25.4
  9
$DIMLFAC
 40
1.0
  9
$DIMTOFL
 70
     0
  9
$DIMTVP
 40
0.0
  9
$DIMTIX
 70
     0
  9
$DIMSOXD
 70
     0
  9
$DIMSAH
 70
     0
  9
$DIMBLK1
  1

  9
$DIMBLK2
  1

  9
$DIMSTYLE
  2
STANDARD
  9
$DIMCLRD
 70
     0
  9
$DIMCLRE
 70
     0
  9
$DIMCLRT
 70
     0
  9
$DIMTFAC
 40
1.0
  9
$DIMGAP
 40
0.09
  9
$DIMJUST
 70
     0
  9
$DIMSD1
 70
     0
  9
$DIMSD2
 70
     0
  9
$DIMTOLJ
 70
     1
  9
$DIMTZIN
 70
     0
  9
$DIMALTZ
 70
     0
  9
$DIMALTTZ
 70
     0
  9
$DIMFIT
 70
     3
  9
$DIMUPT
 70
     0
  9
$DIMUNIT
 70
     2
  9
$DIMDEC
 70
     4
  9
$DIMTDEC
 70
     4
  9
$DIMALTU
 70
     2
  9
$DIMALTTD
 70
     2
  9
$DIMTXSTY
  7
STANDARD
  9
$DIMAUNIT
 70
     0
  9
$LUNITS
 70
     2
  9
$LUPREC
 70
     4
  9
$SKETCHINC
 40
0.1
  9
$FILLETRAD
 40
0.5
  9
$AUNITS
 70
     0
  9
$AUPREC
 70
     0
  9
$MENU
  1
.
  9
$ELEVATION
 40
0.0
  9
$PELEVATION
 40
0.0
  9
$THICKNESS
 40
0.0
  9
$LIMCHECK
 70
     0
  9
$CHAMFERA
 40
0.0
  9
$CHAMFERB
 40
0.0
  9
$CHAMFERC
 40
0.0
  9
$CHAMFERD
 40
0.0
  9
$SKPOLY
 70
     0
  9
$TDCREATE
 40
2460154.50883757
  9
$TDUPDATE
 40
2460154.508837604
  9
$TDINDWG
 40
0.0000000116
  9
$TDUSRTIMER
 40
0.0000000116
  9
$USRTIMER
 70
     1
  9
$ANGBASE
 50
0.0
  9
$ANGDIR
 70
     0
  9
$PDMODE
 70
     0
  9
$PDSIZE
 40
0.0
  9
$PLINEWID
 40
0.0
  9
$COORDS
 70
     1
  9
$SPLFRAME
 70
     0
  9
$SPLINETYPE
 70
     6
  9
$SPLINESEGS
 70
     8
  9
$ATTDIA
 70
     0
  9
$ATTREQ
 70
     1
  9
$HANDLING
 70
     1
  9
$HANDSEED
  5
17F
  9
$SURFTAB1
 70
     6
  9
$SURFTAB2
 70
     6
  9
$SURFTYPE
 70
     6
  9
$SURFU
 70
     6
  9
$SURFV
 70
     6
  9
$UCSNAME
  2

  9
$UCSORG
 10
0.0
 20
0.0
 30
0.0
  9
$UCSXDIR
 10
1.0
 20
0.0
 30
0.0
  9
$UCSYDIR
 10
0.0
 20
1.0
 30
0.0
  9
$PUCSNAME
  2

  9
$PUCSORG
 10
0.0
 20
0.0
 30
0.0
  9
$PUCSXDIR
 10
1.0
 20
0.0
 30
0.0
  9
$PUCSYDIR
 10
0.0
 20
1.0
 30
0.0
  9
$USERI1
 70
     0
  9
$USERI2
 70
     0
  9
$USERI3
 70
     0
  9
$USERI4
 70
     0
  9
$USERI5
 70
     0
  9
$USERR1
 40
0.0
  9
$USERR2
 40
0.0
  9
$USERR3
 40
0.0
  9
$USERR4
 40
0.0
  9
$USERR5
 40
0.0
  9
$WORLDVIEW
 70
     1
  9
$SHADEDGE
 70
     3
  9
$SHADEDIF
 70
    70
  9
$TILEMODE
 70
     1
  9
$MAXACTVP
 70
    64
  9
$PINSBASE
 10
0.0
 20
0.0
 30
0.0
  9
$PLIMCHECK
 70
     0
  9
$PEXTMIN
 10
1.000000000000000E+20
 20
1.000000000000000E+20
 30
1.000000000000000E+20
  9
$PEXTMAX
 10
-1.000000000000000E+20
 20
-1.000000000000000E+20
 30
-1.000000000000000E+20
  9
$PLIMMIN
 10
0.0
 20
0.0
  9
$PLIMMAX
 10
12.0
 20
9.0
  9
$UNITMODE
 70
     0
  9
$VISRETAIN
 70
     1
  9
$PLINEGEN
 70
     0
  9
$PSLTSCALE
 70
     1
  9
$TREEDEPTH
 70
  3020
  9
$PICKSTYLE
 70
     1
  9
$CMLSTYLE
  2
STANDARD
  9
$CMLJUST
 70
     0
  9
$CMLSCALE
 40
1.0
  9
$SAVEIMAGES
 70
     1
  0
ENDSEC
  0
SECTION
  2
CLASSES
  0
CLASS
  1
ACDBDICTIONARYWDFLT
  2
AcDbDictionaryWithDefault
  3
ObjectDBX Classes
 90
    32768
280
     0
281
     0
  0
CLASS
  1
VISUALSTYLE
  2
AcDbVisualStyle
  3
ObjectDBX Classes
 90
     4095
280
     0
281
     0
  0
CLASS
  1
MATERIAL
  2
AcDbMaterial
  3
ObjectDBX Classes
 90
     1153
280
     0
281
     0
  0
CLASS
  1
SCALE
  2
AcDbScale
  3
ObjectDBX Classes
 90
     1153
280
     0
281
     0
  0
CLASS
  1
TABLESTYLE
  2
AcDbTableStyle
  3
ObjectDBX Classes
 90
     4095
280
     0
281
     0
  0
CLASS
  1
MLEADERSTYLE
  2
AcDbMLeaderStyle
  3
ACDB_MLEADERSTYLE_CLASS
 90
     4095
280
     0
281
     0
  0
CLASS
  1
SUN
  2
AcDbSun
  3
SCENEOE
 90
     1153
280
     0
281
     0
  0
CLASS
  1
DICTIONARYVAR
  2
AcDbDictionaryVar
  3
ObjectDBX Classes
 90
        0
280
     0
281
     0
  0
CLASS
  1
XRECORD
  2
AcDbXrecord
  3
ObjectDBX Classes
 90
    32768
280
     0
281
     0
  0
CLASS
  1
LWPOLYLINE
  2
AcDbPolyline
  3
ObjectDBX Classes
 90
    32768
280
     0
281
     1
  0
CLASS
  1
HATCH
  2
AcDbHatch
  3
ObjectDBX Classes
 90
    32768
280
     0
281
     1
  0
CLASS
  1
ACDBPLACEHOLDER
  2
AcDbPlaceHolder
  3
ObjectDBX Classes
 90
        0
280
     0
281
     0
  0
CLASS
  1
LAYOUT
  2
AcDbLayout
  3
ObjectDBX Classes
 90
        0
280
     0
281
     0
  0
ENDSEC
  0
SECTION
  2
TABLES
  0
TABLE
  2
VPORT
  5
8
330
0
100
AcDbSymbolTable
 70
     1
  0
VPORT
  5
29
330
8
100
AcDbSymbolTableRecord
100
AcDbViewportTableRecord
  2
*ACTIVE
 70
     0
 10
0.0
 20
0.0
 11
1.0
 21
1.0
 12
10.42990654205607
 22
4.5
 13
0.0
 23
0.0
 14
0.5
 24
0.5
 15
0.5
 25
0.5
 16
0.0
 26
0.0
 36
1.0
 17
0.0
 27
0.0
 37
0.0
 40
9.0
 41
1.972972972850329
 42
50.0
 43
0.0
 44
0.0
 50
0.0
 51
0.0
 71
     0
 72
   100
 73
     1
 74
     3
 75
     0
 76
     0
 77
     0
 78
     0
  0
ENDTAB
  0
TABLE
  2
LTYPE
  5
5
330
0
100
AcDbSymbolTable
 70
     1
  0
LTYPE
  5
14
330
5
100
AcDbSymbolTableRecord
100
AcDbLinetypeTableRecord
  2
BYBLOCK
 70
     0
  3

 72
    65
 73
     0
 40
0.0
  0
LTYPE
  5
15
330
5
100
AcDbSymbolTableRecord
100
AcDbLinetypeTableRecord
  2
BYLAYER
 70
     0
  3

 72
    65
 73
     0
 40
0.0
  0
LTYPE
  5
16
330
5
100
AcDbSymbolTableRecord
100
AcDbLinetypeTableRecord
  2
CONTINUOUS
 70
     0
  3
Solid line
 72
    65
 73
     0
 40
0.0
  0
ENDTAB
  0
TABLE
  2
LAYER
  5
2
330
0
100
AcDbSymbolTable
 70
     2
  0
LAYER
  5
10
330
2
100
AcDbSymbolTableRecord
100
AcDbLayerTableRecord
  2
0
 70
     0
 62
     7
  6
CONTINUOUS
  0
LAYER
  5
6E
330
2
100
AcDbSymbolTableRecord
100
AcDbLayerTableRecord
  2
ANSYS_LOGO_2D
 70
     0
 62
    10
  6
CONTINUOUS
  0
ENDTAB
  0
TABLE
  2
STYLE
  5
3
330
0
100
AcDbSymbolTable
 70
     1
  0
STYLE
  5
11
330
3
100
AcDbSymbolTableRecord
100
AcDbTextStyleTableRecord
  2
STANDARD
 70
     0
 40
0.0
 41
1.0
 50
0.0
 71
     0
 42
0.2
  3
txt
  4

  0
ENDTAB
  0
TABLE
  2
VIEW
  5
6
330
0
100
AcDbSymbolTable
 70
     0
  0
ENDTAB
  0
TABLE
  2
UCS
  5
7
330
0
100
AcDbSymbolTable
 70
     0
  0
ENDTAB
  0
TABLE
  2
APPID
  5
9
330
0
100
AcDbSymbolTable
 70
     2
  0
APPID
  5
12
330
9
100
AcDbSymbolTableRecord
100
AcDbRegAppTableRecord
  2
ACAD
 70
     0
  0
APPID
  5
17E
330
9
100
AcDbSymbolTableRecord
100
AcDbRegAppTableRecord
  2
ACAD_MLEADERVER
 70
     0
  0
ENDTAB
  0
TABLE
  2
DIMSTYLE
  5
A
330
0
100
AcDbSymbolTable
 70
     1
  0
DIMSTYLE
105
27
330
A
100
AcDbSymbolTableRecord
100
AcDbDimStyleTableRecord
  2
STANDARD
 70
     0
  3

  4

  5

  6

  7

 40
1.0
 41
0.18
 42
0.0625
 43
0.38
 44
0.18
 45
0.0
 46
0.0
 47
0.0
 48
0.0
140
0.18
141
0.09
142
0.0
143
25.4
144
1.0
145
0.0
146
1.0
147
0.09
 71
     0
 72
     0
 73
     1
 74
     1
 75
     0
 76
     0
 77
     0
 78
     0
170
     0
171
     2
172
     0
173
     0
174
     0
175
     0
176
     0
177
     0
178
     0
270
     2
271
     4
272
     4
273
     2
274
     2
340
11
275
     0
280
     0
281
     0
282
     0
283
     1
284
     0
285
     0
286
     0
287
     3
288
     0
  0
ENDTAB
  0
TABLE
  2
BLOCK_RECORD
  5
1
330
0
100
AcDbSymbolTable
 70
     0
  0
BLOCK_RECORD
  5
1F
330
1
100
AcDbSymbolTableRecord
100
AcDbBlockTableRecord
  2
*MODEL_SPACE
  0
BLOCK_RECORD
  5
1B
330
1
100
AcDbSymbolTableRecord
100
AcDbBlockTableRecord
  2
*PAPER_SPACE
  0
ENDTAB
  0
ENDSEC
  0
SECTION
  2
BLOCKS
  0
BLOCK
  5
20
330
1F
100
AcDbEntity
  8
0
100
AcDbBlockBegin
  2
*MODEL_SPACE
 70
     0
 10
0.0
 20
0.0
 30
0.0
  3
*MODEL_SPACE
  1

  0
ENDBLK
  5
21
330
1F
100
AcDbEntity
  8
0
100
AcDbBlockEnd
  0
BLOCK
  5
1C
330
1B
100
AcDbEntity
 67
     1
  8
0
100
AcDbBlockBegin
  2
*PAPER_SPACE
 70
     0
 10
0.0
 20
0.0
 30
0.0
  3
*PAPER_SPACE
  1

  0
ENDBLK
  5
1D
330
1B
100
AcDbEntity
 67
     1
  8
0
100
AcDbBlockEnd
  0
ENDSEC
  0
SECTION
  2
ENTITIES
  0
POLYLINE
  5
6F
330
1F
100
AcDbEntity
  8
ANSYS_LOGO_2D
100
AcDb2dPolyline
 66
     1
 10
0.0
 20
0.0
 30
0.0
 70
     1
  0
VERTEX
  5
70
330
6F
100
AcDbEntity
  8
0
100
AcDbVertex
100
AcDb2dVertex
 10
-3254.037205913298
 20
-567.9031153270658
 30
0.0
  0
VERTEX
  5
71
330
6F
100
AcDbEntity
  8
0
100
AcDbVertex
100
AcDb2dVertex
 10
-2829.264961663735
 20
-567.903115327066
 30
0.0
  0
VERTEX
  5
72
330
6F
100
AcDbEntity
  8
0
100
AcDbVertex
100
AcDb2dVertex
 10
-2202.122458672366
 20
977.4137319484504
 30
0.0
  0
VERTEX
  5
73
330
6F
100
AcDbEntity
  8
0
100
AcDbVertex
100
AcDb2dVertex
 10
-2196.335427984116
 20
992.6517892021893
 30
0.0
  0
VERTEX
  5
74
330
6F
100
AcDbEntity
  8
0
100
AcDbVertex
100
AcDb2dVertex
 10
-2620.710577392145
 20
992.6517892021893
 30
0.0
  0
VERTEX
  5
75
330
6F
100
AcDbEntity
  8
0
100
AcDbVertex
100
AcDb2dVertex
 10
-3254.037205913298
 20
-567.9031153270658
 30
0.0
  0
SEQEND
  5
76
330
6F
100
AcDbEntity
  8
ANSYS_LOGO_2D
  0
POLYLINE
  5
77
330
1F
100
AcDbEntity
  8
ANSYS_LOGO_2D
100
AcDb2dPolyline
 66
     1
 10
0.0
 20
0.0
 30
0.0
 70
     1
  0
VERTEX
  5
78
330
77
100
AcDbEntity
  8
0
100
AcDbVertex
100
AcDb2dVertex
 10
-1904.105501996966
 20
-564.563162404736
 30
0.0
  0
VERTEX
  5
79
330
77
100
AcDbEntity
  8
0
100
AcDbVertex
100
AcDb2dVertex
 10
-1451.550824867276
 20
-564.563162404736
 30
0.0
  0
VERTEX
  5
7A
330
77
100
AcDbEntity
  8
0
100
AcDbVertex
100
AcDb2dVertex
 10
-2093.886495631995
 20
931.7869797176214
 30
0.0
  0
VERTEX
  5
7B
330
77
100
AcDbEntity
  8
0
100
AcDbVertex
100
AcDb2dVertex
 10
-2309.809237917006
 20
419.5741920245192
 30
0.0
  0
VERTEX
  5
7C
330
77
100
AcDbEntity
  8
0
100
AcDbVertex
100
AcDb2dVertex
 10
-1904.105501996966
 20
-564.563162404736
 30
0.0
  0
SEQEND
  5
7D
330
77
100
AcDbEntity
  8
ANSYS_LOGO_2D
  0
POLYLINE
  5
7E
330
1F
100
AcDbEntity
  8
ANSYS_LOGO_2D
100
AcDb2dPolyline
 66
     1
 10
0.0
 20
0.0
 30
0.0
 70
     1
  0
VERTEX
  5
7F
330
7E
100
AcDbEntity
  8
0
100
AcDbVertex
100
AcDb2dVertex
 10
-1032.152127853609
 20
514.2239217660152
 30
0.0
  0
VERTEX
  5
80
330
7E
100
AcDbEntity
  8
0
100
AcDbVertex
100
AcDb2dVertex
 10
-1359.94337398249
 20
512.5342761674119
 30
0.0
  0
VERTEX
  5
81
330
7E
100
AcDbEntity
  8
0
100
AcDbVertex
100
AcDb2dVertex
 10
-1359.94337398249
 20
-570.5285525367791
 30
0.0
  0
VERTEX
  5
82
330
7E
100
AcDbEntity
  8
0
100
AcDbVertex
100
AcDb2dVertex
 10
-1023.703899860596
 20
-570.5285525367791
 30
0.0
  0
VERTEX
  5
83
330
7E
100
AcDbEntity
  8
0
100
AcDbVertex
100
AcDb2dVertex
 10
-1023.703899860597
 20
85.05393972098419
 30
0.0
  0
VERTEX
  5
84
330
7E
100
AcDbEntity
  8
0
100
AcDbVertex
100
AcDb2dVertex
 10
-1016.850310067609
 20
116.1362847973511
 30
0.0
  0
VERTEX
  5
85
330
7E
100
AcDbEntity
  8
0
100
AcDbVertex
100
AcDb2dVertex
 10
-1008.014857386992
 20
146.1933826332519
 30
0.0
  0
VERTEX
  5
86
330
7E
100
AcDbEntity
  8
0
100
AcDbVertex
100
AcDb2dVertex
 10
-995.2156789311118
 20
174.1999859882207
 30
0.0
  0
VERTEX
  5
87
330
7E
100
AcDbEntity
  8
0
100
AcDbVertex
100
AcDb2dVertex
 10
-977.0760230415132
 20
199.3301119486529
 30
0.0
  0
VERTEX
  5
88
330
7E
100
AcDbEntity
  8
0
100
AcDbVertex
100
AcDb2dVertex
 10
-954.7526987612675
 20
221.5920841604887
 30
0.0
  0
VERTEX
  5
89
330
7E
100
AcDbEntity
  8
0
100
AcDbVertex
100
AcDb2dVertex
 10
-930.0043780106297
 20
241.1839524137947
 30
0.0
  0
VERTEX
  5
8A
330
7E
100
AcDbEntity
  8
0
100
AcDbVertex
100
AcDb2dVertex
 10
-903.5518632877313
 20
257.8181806870602
 30
0.0
  0
VERTEX
  5
8B
330
7E
100
AcDbEntity
  8
0
100
AcDbVertex
100
AcDb2dVertex
 10
-875.2521173104807
 20
270.8035514572671
 30
0.0
  0
VERTEX
  5
8C
330
7E
100
AcDbEntity
  8
0
100
AcDbVertex
100
AcDb2dVertex
 10
-845.2330772557513
 20
279.6184477011128
 30
0.0
  0
VERTEX
  5
8D
330
7E
100
AcDbEntity
  8
0
100
AcDbVertex
100
AcDb2dVertex
 10
-814.150540588079
 20
284.0641709243721
 30
0.0
  0
VERTEX
  5
8E
330
7E
100
AcDbEntity
  8
0
100
AcDbVertex
100
AcDb2dVertex
 10
-787.9521748905228
 20
284.3070238687496
 30
0.0
  0
VERTEX
  5
8F
330
7E
100
AcDbEntity
  8
0
100
AcDbVertex
100
AcDb2dVertex
 10
-761.9619303881569
 20
281.2513224301322
 30
0.0
  0
VERTEX
  5
90
330
7E
100
AcDbEntity
  8
0
100
AcDbVertex
100
AcDb2dVertex
 10
-736.6478076117967
 20
274.7295665999492
 30
0.0
  0
VERTEX
  5
91
330
7E
100
AcDbEntity
  8
0
100
AcDbVertex
100
AcDb2dVertex
 10
-712.5040927376581
 20
264.572477479573
 30
0.0
  0
VERTEX
  5
92
330
7E
100
AcDbEntity
  8
0
100
AcDbVertex
100
AcDb2dVertex
 10
-690.4489618406758
 20
250.5852039527966
 30
0.0
  0
VERTEX
  5
93
330
7E
100
AcDbEntity
  8
0
100
AcDbVertex
100
AcDb2dVertex
 10
-671.712173482411
 20
232.583176904163
 30
0.0
  0
VERTEX
  5
94
330
7E
100
AcDbEntity
  8
0
100
AcDbVertex
100
AcDb2dVertex
 10
-656.8062088217313
 20
211.0762814034357
 30
0.0
  0
VERTEX
  5
95
330
7E
100
AcDbEntity
  8
0
100
AcDbVertex
100
AcDb2dVertex
 10
-645.5271077877886
 20
187.2591575807237
 30
0.0
  0
VERTEX
  5
96
330
7E
100
AcDbEntity
  8
0
100
AcDbVertex
100
AcDb2dVertex
 10
-637.6139099929725
 20
162.3140474032409
 30
0.0
  0
VERTEX
  5
97
330
7E
100
AcDbEntity
  8
0
100
AcDbVertex
100
AcDb2dVertex
 10
-632.4333579779118
 20
136.8458460434586
 30
0.0
  0
VERTEX
  5
98
330
7E
100
AcDbEntity
  8
0
100
AcDbVertex
100
AcDb2dVertex
 10
-629.0787780593404
 20
111.0354432425124
 30
0.0
  0
VERTEX
  5
99
330
7E
100
AcDbEntity
  8
0
100
AcDbVertex
100
AcDb2dVertex
 10
-626.6371841890135
 20
85.05393972098415
 30
0.0
  0
VERTEX
  5
9A
330
7E
100
AcDbEntity
  8
0
100
AcDbVertex
100
AcDb2dVertex
 10
-626.6371841890135
 20
-570.5285525367792
 30
0.0
  0
VERTEX
  5
9B
330
7E
100
AcDbEntity
  8
0
100
AcDbVertex
100
AcDb2dVertex
 10
-295.4666468629266
 20
-570.5285525367792
 30
0.0
  0
VERTEX
  5
9C
330
7E
100
AcDbEntity
  8
0
100
AcDbVertex
100
AcDb2dVertex
 10
-295.4666468629269
 20
154.329409263686
 30
0.0
  0
VERTEX
  5
9D
330
7E
100
AcDbEntity
  8
0
100
AcDbVertex
100
AcDb2dVertex
 10
-305.3241105288698
 20
217.5756085712239
 30
0.0
  0
VERTEX
  5
9E
330
7E
100
AcDbEntity
  8
0
100
AcDbVertex
100
AcDb2dVertex
 10
-318.7785814490935
 20
280.2016814267288
 30
0.0
  0
VERTEX
  5
9F
330
7E
100
AcDbEntity
  8
0
100
AcDbVertex
100
AcDb2dVertex
 10
-339.3753034941017
 20
341.536771872871
 30
0.0
  0
VERTEX
  5
A0
330
7E
100
AcDbEntity
  8
0
100
AcDbVertex
100
AcDb2dVertex
 10
-369.2194134333301
 20
399.4986803445086
 30
0.0
  0
VERTEX
  5
A1
330
7E
100
AcDbEntity
  8
0
100
AcDbVertex
100
AcDb2dVertex
 10
-400.1001943116974
 20
440.9943166488036
 30
0.0
  0
VERTEX
  5
A2
330
7E
100
AcDbEntity
  8
0
100
AcDbVertex
100
AcDb2dVertex
 10
-437.4434433556213
 20
476.0938232324911
 30
0.0
  0
VERTEX
  5
A3
330
7E
100
AcDbEntity
  8
0
100
AcDbVertex
100
AcDb2dVertex
 10
-480.8884178300629
 20
503.5715783915584
 30
0.0
  0
VERTEX
  5
A4
330
7E
100
AcDbEntity
  8
0
100
AcDbVertex
100
AcDb2dVertex
 10
-528.7294301597933
 20
523.7828686297613
 30
0.0
  0
VERTEX
  5
A5
330
7E
100
AcDbEntity
  8
0
100
AcDbVertex
100
AcDb2dVertex
 10
-579.0698500363922
 20
537.3074230637371
 30
0.0
  0
VERTEX
  5
A6
330
7E
100
AcDbEntity
  8
0
100
AcDbVertex
100
AcDb2dVertex
 10
-642.8610458767251
 20
545.6860687394629
 30
0.0
  0
VERTEX
  5
A7
330
7E
100
AcDbEntity
  8
0
100
AcDbVertex
100
AcDb2dVertex
 10
-706.8130692817398
 20
545.5695582856523
 30
0.0
  0
VERTEX
  5
A8
330
7E
100
AcDbEntity
  8
0
100
AcDbVertex
100
AcDb2dVertex
 10
-771.3156414681104
 20
537.9614736095945
 30
0.0
  0
VERTEX
  5
A9
330
7E
100
AcDbEntity
  8
0
100
AcDbVertex
100
AcDb2dVertex
 10
-835.4978101471465
 20
522.9934432401348
 30
0.0
  0
VERTEX
  5
AA
330
7E
100
AcDbEntity
  8
0
100
AcDbVertex
100
AcDb2dVertex
 10
-884.4722687194402
 20
504.748147667744
 30
0.0
  0
VERTEX
  5
AB
330
7E
100
AcDbEntity
  8
0
100
AcDbVertex
100
AcDb2dVertex
 10
-929.4246833501381
 20
480.0262165352034
 30
0.0
  0
VERTEX
  5
AC
330
7E
100
AcDbEntity
  8
0
100
AcDbVertex
100
AcDb2dVertex
 10
-968.6072778296929
 20
448.0115446685869
 30
0.0
  0
VERTEX
  5
AD
330
7E
100
AcDbEntity
  8
0
100
AcDbVertex
100
AcDb2dVertex
 10
-1001.920167280554
 20
409.345575728501
 30
0.0
  0
VERTEX
  5
AE
330
7E
100
AcDbEntity
  8
0
100
AcDbVertex
100
AcDb2dVertex
 10
-1032.152127853609
 20
367.2247546875986
 30
0.0
  0
VERTEX
  5
AF
330
7E
100
AcDbEntity
  8
0
100
AcDbVertex
100
AcDb2dVertex
 10
-1032.152127853609
 20
514.2239217660152
 30
0.0
  0
SEQEND
  5
B0
330
7E
100
AcDbEntity
  8
ANSYS_LOGO_2D
  0
POLYLINE
  5
B1
330
1F
100
AcDbEntity
  8
ANSYS_LOGO_2D
100
AcDb2dPolyline
 66
     1
 10
0.0
 20
0.0
 30
0.0
 70
     1
  0
VERTEX
  5
B2
330
B1
100
AcDbEntity
  8
0
100
AcDbVertex
100
AcDb2dVertex
 10
-133.2043478771354
 20
-447.1055737108625
 30
0.0
  0
VERTEX
  5
B3
330
B1
100
AcDbEntity
  8
0
100
AcDbVertex
100
AcDb2dVertex
 10
-58.21045956292733
 20
-499.4057166902511
 30
0.0
  0
VERTEX
  5
B4
330
B1
100
AcDbEntity
  8
0
100
AcDbVertex
100
AcDb2dVertex
 10
21.6407456941347
 20
-541.9353005798939
 30
0.0
  0
VERTEX
  5
B5
330
B1
100
AcDbEntity
  8
0
100
AcDbVertex
100
AcDb2dVertex
 10
108.4304741687672
 20
-569.3381096853851
 30
0.0
  0
VERTEX
  5
B6
330
B1
100
AcDbEntity
  8
0
100
AcDbVertex
100
AcDb2dVertex
 10
199.0215195662144
 20
-584.5558197921462
 30
0.0
  0
VERTEX
  5
B7
330
B1
100
AcDbEntity
  8
0
100
AcDbVertex
100
AcDb2dVertex
 10
290.0922268528383
 20
-591.0420643787342
 30
0.0
  0
VERTEX
  5
B8
330
B1
100
AcDbEntity
  8
0
100
AcDbVertex
100
AcDb2dVertex
 10
380.9543765870893
 20
-589.5333646991644
 30
0.0
  0
VERTEX
  5
B9
330
B1
100
AcDbEntity
  8
0
100
AcDbVertex
100
AcDb2dVertex
 10
471.9887136845265
 20
-579.6349232654878
 30
0.0
  0
VERTEX
  5
BA
330
B1
100
AcDbEntity
  8
0
100
AcDbVertex
100
AcDb2dVertex
 10
562.1560250401762
 20
-559.9614545939132
 30
0.0
  0
VERTEX
  5
BB
330
B1
100
AcDbEntity
  8
0
100
AcDbVertex
100
AcDb2dVertex
 10
647.9151391687022
 20
-527.3927315921134
 30
0.0
  0
VERTEX
  5
BC
330
B1
100
AcDbEntity
  8
0
100
AcDbVertex
100
AcDb2dVertex
 10
695.6759080631107
 20
-500.2905086144561
 30
0.0
  0
VERTEX
  5
BD
330
B1
100
AcDbEntity
  8
0
100
AcDbVertex
100
AcDb2dVertex
 10
739.5587742435982
 20
-466.6659438497918
 30
0.0
  0
VERTEX
  5
BE
330
B1
100
AcDbEntity
  8
0
100
AcDbVertex
100
AcDb2dVertex
 10
776.7173378496911
 20
-426.1666721239704
 30
0.0
  0
VERTEX
  5
BF
330
B1
100
AcDbEntity
  8
0
100
AcDbVertex
100
AcDb2dVertex
 10
802.8023038360253
 20
-378.8026469688328
 30
0.0
  0
VERTEX
  5
C0
330
B1
100
AcDbEntity
  8
0
100
AcDbVertex
100
AcDb2dVertex
 10
817.5388071311161
 20
-326.0626673975104
 30
0.0
  0
VERTEX
  5
C1
330
B1
100
AcDbEntity
  8
0
100
AcDbVertex
100
AcDb2dVertex
 10
825.1922338585613
 20
-264.7389959643735
 30
0.0
  0
VERTEX
  5
C2
330
B1
100
AcDbEntity
  8
0
100
AcDbVertex
100
AcDb2dVertex
 10
824.3812850526202
 20
-203.7400505641008
 30
0.0
  0
VERTEX
  5
C3
330
B1
100
AcDbEntity
  8
0
100
AcDbVertex
100
AcDb2dVertex
 10
810.1299615398991
 20
-145.3345803352001
 30
0.0
  0
VERTEX
  5
C4
330
B1
100
AcDbEntity
  8
0
100
AcDbVertex
100
AcDb2dVertex
 10
781.3193475846655
 20
-91.53039762245669
 30
0.0
  0
VERTEX
  5
C5
330
B1
100
AcDbEntity
  8
0
100
AcDbVertex
100
AcDb2dVertex
 10
742.002099984708
 20
-44.09779620249216
 30
0.0
  0
VERTEX
  5
C6
330
B1
100
AcDbEntity
  8
0
100
AcDbVertex
100
AcDb2dVertex
 10
695.5195305198675
 20
-4.16486061253083
 30
0.0
  0
VERTEX
  5
C7
330
B1
100
AcDbEntity
  8
0
100
AcDbVertex
100
AcDb2dVertex
 10
616.2523130776325
 20
41.36654629153948
 30
0.0
  0
VERTEX
  5
C8
330
B1
100
AcDbEntity
  8
0
100
AcDbVertex
100
AcDb2dVertex
 10
529.565372295155
 20
70.27415622277297
 30
0.0
  0
VERTEX
  5
C9
330
B1
100
AcDbEntity
  8
0
100
AcDbVertex
100
AcDb2dVertex
 10
441.243480253733
 20
88.60619760115004
 30
0.0
  0
VERTEX
  5
CA
330
B1
100
AcDbEntity
  8
0
100
AcDbVertex
100
AcDb2dVertex
 10
326.8235257681674
 20
114.6492823553014
 30
0.0
  0
VERTEX
  5
CB
330
B1
100
AcDbEntity
  8
0
100
AcDbVertex
100
AcDb2dVertex
 10
295.3724374421253
 20
123.4050826366852
 30
0.0
  0
VERTEX
  5
CC
330
B1
100
AcDbEntity
  8
0
100
AcDbVertex
100
AcDb2dVertex
 10
262.7764563931136
 20
133.5022453694026
 30
0.0
  0
VERTEX
  5
CD
330
B1
100
AcDbEntity
  8
0
100
AcDbVertex
100
AcDb2dVertex
 10
232.6352838149534
 20
147.1851161998398
 30
0.0
  0
VERTEX
  5
CE
330
B1
100
AcDbEntity
  8
0
100
AcDbVertex
100
AcDb2dVertex
 10
217.4650580278929
 20
159.6364330690317
 30
0.0
  0
VERTEX
  5
CF
330
B1
100
AcDbEntity
  8
0
100
AcDbVertex
100
AcDb2dVertex
 10
207.7040407787428
 20
176.0850707014775
 30
0.0
  0
VERTEX
  5
D0
330
B1
100
AcDbEntity
  8
0
100
AcDbVertex
100
AcDb2dVertex
 10
204.115417443536
 20
196.1173074087311
 30
0.0
  0
VERTEX
  5
D1
330
B1
100
AcDbEntity
  8
0
100
AcDbVertex
100
AcDb2dVertex
 10
205.7767513597031
 20
216.8864290342107
 30
0.0
  0
VERTEX
  5
D2
330
B1
100
AcDbEntity
  8
0
100
AcDbVertex
100
AcDb2dVertex
 10
220.9687064424307
 20
254.35862040006
 30
0.0
  0
VERTEX
  5
D3
330
B1
100
AcDbEntity
  8
0
100
AcDbVertex
100
AcDb2dVertex
 10
247.2941994959655
 20
285.4184951644567
 30
0.0
  0
VERTEX
  5
D4
330
B1
100
AcDbEntity
  8
0
100
AcDbVertex
100
AcDb2dVertex
 10
276.4984657573045
 20
300.8658954890067
 30
0.0
  0
VERTEX
  5
D5
330
B1
100
AcDbEntity
  8
0
100
AcDbVertex
100
AcDb2dVertex
 10
310.2200924704954
 20
306.8304331468349
 30
0.0
  0
VERTEX
  5
D6
330
B1
100
AcDbEntity
  8
0
100
AcDbVertex
100
AcDb2dVertex
 10
345.8568154424613
 20
307.2362281055925
 30
0.0
  0
VERTEX
  5
D7
330
B1
100
AcDbEntity
  8
0
100
AcDbVertex
100
AcDb2dVertex
 10
381.1535295046284
 20
305.4940328587619
 30
0.0
  0
VERTEX
  5
D8
330
B1
100
AcDbEntity
  8
0
100
AcDbVertex
100
AcDb2dVertex
 10
486.9968757890083
 20
290.0823510040598
 30
0.0
  0
VERTEX
  5
D9
330
B1
100
AcDbEntity
  8
0
100
AcDbVertex
100
AcDb2dVertex
 10
562.9740432470617
 20
266.5529158038873
 30
0.0
  0
VERTEX
  5
DA
330
B1
100
AcDbEntity
  8
0
100
AcDbVertex
100
AcDb2dVertex
 10
636.4416110731318
 20
233.3858675892701
 30
0.0
  0
VERTEX
  5
DB
330
B1
100
AcDbEntity
  8
0
100
AcDbVertex
100
AcDb2dVertex
 10
708.644675170566
 20
195.230097053857
 30
0.0
  0
VERTEX
  5
DC
330
B1
100
AcDbEntity
  8
0
100
AcDbVertex
100
AcDb2dVertex
 10
791.3697236781427
 20
404.475807984788
 30
0.0
  0
VERTEX
  5
DD
330
B1
100
AcDbEntity
  8
0
100
AcDbVertex
100
AcDb2dVertex
 10
717.8493007133394
 20
457.9324645058327
 30
0.0
  0
VERTEX
  5
DE
330
B1
100
AcDbEntity
  8
0
100
AcDbVertex
100
AcDb2dVertex
 10
636.6901531920952
 20
496.5189621471877
 30
0.0
  0
VERTEX
  5
DF
330
B1
100
AcDbEntity
  8
0
100
AcDbVertex
100
AcDb2dVertex
 10
548.3458247118118
 20
519.493058109405
 30
0.0
  0
VERTEX
  5
E0
330
B1
100
AcDbEntity
  8
0
100
AcDbVertex
100
AcDb2dVertex
 10
457.0308411215722
 20
532.6755471780432
 30
0.0
  0
VERTEX
  5
E1
330
B1
100
AcDbEntity
  8
0
100
AcDbVertex
100
AcDb2dVertex
 10
366.0076708089188
 20
538.966411503777
 30
0.0
  0
VERTEX
  5
E2
330
B1
100
AcDbEntity
  8
0
100
AcDbVertex
100
AcDb2dVertex
 10
276.074062733341
 20
533.7913908748124
 30
0.0
  0
VERTEX
  5
E3
330
B1
100
AcDbEntity
  8
0
100
AcDbVertex
100
AcDb2dVertex
 10
209.4432697954019
 20
520.6864889846737
 30
0.0
  0
VERTEX
  5
E4
330
B1
100
AcDbEntity
  8
0
100
AcDbVertex
100
AcDb2dVertex
 10
143.2977422089192
 20
502.3325939021843
 30
0.0
  0
VERTEX
  5
E5
330
B1
100
AcDbEntity
  8
0
100
AcDbVertex
100
AcDb2dVertex
 10
79.31016527468641
 20
478.1812857079464
 30
0.0
  0
VERTEX
  5
E6
330
B1
100
AcDbEntity
  8
0
100
AcDbVertex
100
AcDb2dVertex
 10
21.99592748856126
 20
442.357983477438
 30
0.0
  0
VERTEX
  5
E7
330
B1
100
AcDbEntity
  8
0
100
AcDbVertex
100
AcDb2dVertex
 10
-25.65950422595402
 20
393.2400955607669
 30
0.0
  0
VERTEX
  5
E8
330
B1
100
AcDbEntity
  8
0
100
AcDbVertex
100
AcDb2dVertex
 10
-62.99717031721077
 20
335.3960746379258
 30
0.0
  0
VERTEX
  5
E9
330
B1
100
AcDbEntity
  8
0
100
AcDbVertex
100
AcDb2dVertex
 10
-88.81802701306891
 20
272.3413098918322
 30
0.0
  0
VERTEX
  5
EA
330
B1
100
AcDbEntity
  8
0
100
AcDbVertex
100
AcDb2dVertex
 10
-100.7813178380266
 20
205.2712591616963
 30
0.0
  0
VERTEX
  5
EB
330
B1
100
AcDbEntity
  8
0
100
AcDbVertex
100
AcDb2dVertex
 10
-98.19182837406382
 20
144.6862734723351
 30
0.0
  0
VERTEX
  5
EC
330
B1
100
AcDbEntity
  8
0
100
AcDbVertex
100
AcDb2dVertex
 10
-82.60383006296989
 20
86.0895302489431
 30
0.0
  0
VERTEX
  5
ED
330
B1
100
AcDbEntity
  8
0
100
AcDbVertex
100
AcDb2dVertex
 10
-55.37831743933057
 20
31.53833341696498
 30
0.0
  0
VERTEX
  5
EE
330
B1
100
AcDbEntity
  8
0
100
AcDbVertex
100
AcDb2dVertex
 10
-18.06096317798805
 20
-16.47868457829981
 30
0.0
  0
VERTEX
  5
EF
330
B1
100
AcDbEntity
  8
0
100
AcDbVertex
100
AcDb2dVertex
 10
28.13711942411613
 20
-54.27323485695344
 30
0.0
  0
VERTEX
  5
F0
330
B1
100
AcDbEntity
  8
0
100
AcDbVertex
100
AcDb2dVertex
 10
81.42549350516755
 20
-81.62145201172831
 30
0.0
  0
VERTEX
  5
F1
330
B1
100
AcDbEntity
  8
0
100
AcDbVertex
100
AcDb2dVertex
 10
159.5310466362709
 20
-106.5381520329199
 30
0.0
  0
VERTEX
  5
F2
330
B1
100
AcDbEntity
  8
0
100
AcDbVertex
100
AcDb2dVertex
 10
240.6742918903539
 20
-124.3278669157326
 30
0.0
  0
VERTEX
  5
F3
330
B1
100
AcDbEntity
  8
0
100
AcDbVertex
100
AcDb2dVertex
 10
320.4412051198526
 20
-140.722115794081
 30
0.0
  0
VERTEX
  5
F4
330
B1
100
AcDbEntity
  8
0
100
AcDbVertex
100
AcDb2dVertex
 10
378.8754667682862
 20
-153.7410369467669
 30
0.0
  0
VERTEX
  5
F5
330
B1
100
AcDbEntity
  8
0
100
AcDbVertex
100
AcDb2dVertex
 10
436.293947104141
 20
-168.8546431129862
 30
0.0
  0
VERTEX
  5
F6
330
B1
100
AcDbEntity
  8
0
100
AcDbVertex
100
AcDb2dVertex
 10
465.0787755799469
 20
-179.0415844240417
 30
0.0
  0
VERTEX
  5
F7
330
B1
100
AcDbEntity
  8
0
100
AcDbVertex
100
AcDb2dVertex
 10
493.9797072967868
 20
-192.5919136356467
 30
0.0
  0
VERTEX
  5
F8
330
B1
100
AcDbEntity
  8
0
100
AcDbVertex
100
AcDb2dVertex
 10
517.3537984530495
 20
-211.9298137544027
 30
0.0
  0
VERTEX
  5
F9
330
B1
100
AcDbEntity
  8
0
100
AcDbVertex
100
AcDb2dVertex
 10
523.7988860797346
 20
-224.8054829849713
 30
0.0
  0
VERTEX
  5
FA
330
B1
100
AcDbEntity
  8
0
100
AcDbVertex
100
AcDb2dVertex
 10
525.98456602788
 20
-239.6453212860524
 30
0.0
  0
VERTEX
  5
FB
330
B1
100
AcDbEntity
  8
0
100
AcDbVertex
100
AcDb2dVertex
 10
521.392921790729
 20
-267.5358093635618
 30
0.0
  0
VERTEX
  5
FC
330
B1
100
AcDbEntity
  8
0
100
AcDbVertex
100
AcDb2dVertex
 10
509.0713918612867
 20
-292.4361900106539
 30
0.0
  0
VERTEX
  5
FD
330
B1
100
AcDbEntity
  8
0
100
AcDbVertex
100
AcDb2dVertex
 10
490.8391123428729
 20
-311.8628695672957
 30
0.0
  0
VERTEX
  5
FE
330
B1
100
AcDbEntity
  8
0
100
AcDbVertex
100
AcDb2dVertex
 10
455.1981267020475
 20
-330.6421652362567
 30
0.0
  0
VERTEX
  5
FF
330
B1
100
AcDbEntity
  8
0
100
AcDbVertex
100
AcDb2dVertex
 10
415.8947702711176
 20
-341.2243101453578
 30
0.0
  0
VERTEX
  5
100
330
B1
100
AcDbEntity
  8
0
100
AcDbVertex
100
AcDb2dVertex
 10
335.7535214599591
 20
-349.0800633280519
 30
0.0
  0
VERTEX
  5
101
330
B1
100
AcDbEntity
  8
0
100
AcDbVertex
100
AcDb2dVertex
 10
254.5607773309824
 20
-344.8073421151639
 30
0.0
  0
VERTEX
  5
102
330
B1
100
AcDbEntity
  8
0
100
AcDbVertex
100
AcDb2dVertex
 10
148.0212595180996
 20
-322.0499227101279
 30
0.0
  0
VERTEX
  5
103
330
B1
100
AcDbEntity
  8
0
100
AcDbVertex
100
AcDb2dVertex
 10
47.7506601853923
 20
-281.3354907261897
 30
0.0
  0
VERTEX
  5
104
330
B1
100
AcDbEntity
  8
0
100
AcDbVertex
100
AcDb2dVertex
 10
-45.61312004558278
 20
-228.127504131981
 30
0.0
  0
VERTEX
  5
105
330
B1
100
AcDbEntity
  8
0
100
AcDbVertex
100
AcDb2dVertex
 10
-133.2043478771354
 20
-447.1055737108625
 30
0.0
  0
SEQEND
  5
106
330
B1
100
AcDbEntity
  8
ANSYS_LOGO_2D
  0
POLYLINE
  5
107
330
1F
100
AcDbEntity
  8
ANSYS_LOGO_2D
100
AcDb2dPolyline
 66
     1
 10
0.0
 20
0.0
 30
0.0
 70
     1
  0
VERTEX
  5
108
330
107
100
AcDbEntity
  8
0
100
AcDbVertex
100
AcDb2dVertex
 10
1139.788163274763
 20
-967.3001434438053
 30
0.0
  0
VERTEX
  5
109
330
107
100
AcDbEntity
  8
0
100
AcDbVertex
100
AcDb2dVertex
 10
1456.08981933315
 20
-967.3001434438053
 30
0.0
  0
VERTEX
  5
10A
330
107
100
AcDbEntity
  8
0
100
AcDbVertex
100
AcDb2dVertex
 10
2057.06296584408
 20
509.5852813826521
 30
0.0
  0
VERTEX
  5
10B
330
107
100
AcDbEntity
  8
0
100
AcDbVertex
100
AcDb2dVertex
 10
1731.028951137745
 20
509.5852813826521
 30
0.0
  0
VERTEX
  5
10C
330
107
100
AcDbEntity
  8
0
100
AcDbVertex
100
AcDb2dVertex
 10
1480.420715953025
 20
-115.7187617481546
 30
0.0
  0
VERTEX
  5
10D
330
107
100
AcDbEntity
  8
0
100
AcDbVertex
100
AcDb2dVertex
 10
1220.080122120354
 20
509.5852813826521
 30
0.0
  0
VERTEX
  5
10E
330
107
100
AcDbEntity
  8
0
100
AcDbVertex
100
AcDb2dVertex
 10
901.3453763999811
 20
509.5852813826521
 30
0.0
  0
VERTEX
  5
10F
330
107
100
AcDbEntity
  8
0
100
AcDbVertex
100
AcDb2dVertex
 10
1323.733317777808
 20
-515.2567880456332
 30
0.0
  0
VERTEX
  5
110
330
107
100
AcDbEntity
  8
0
100
AcDbVertex
100
AcDb2dVertex
 10
1139.788163274763
 20
-967.3001434438053
 30
0.0
  0
SEQEND
  5
111
330
107
100
AcDbEntity
  8
ANSYS_LOGO_2D
  0
POLYLINE
  5
112
330
1F
100
AcDbEntity
  8
ANSYS_LOGO_2D
100
AcDb2dPolyline
 66
     1
 10
0.0
 20
0.0
 30
0.0
 70
     1
  0
VERTEX
  5
113
330
112
100
AcDbEntity
  8
0
100
AcDbVertex
100
AcDb2dVertex
 10
2925.189675170565
 20
195.2300970538568
 30
0.0
  0
VERTEX
  5
114
330
112
100
AcDbEntity
  8
0
100
AcDbVertex
100
AcDb2dVertex
 10
3007.914723678144
 20
404.4758079847879
 30
0.0
  0
VERTEX
  5
115
330
112
100
AcDbEntity
  8
0
100
AcDbVertex
100
AcDb2dVertex
 10
2934.39430071334
 20
457.9324645058327
 30
0.0
  0
VERTEX
  5
116
330
112
100
AcDbEntity
  8
0
100
AcDbVertex
100
AcDb2dVertex
 10
2853.235153192095
 20
496.5189621471876
 30
0.0
  0
VERTEX
  5
117
330
112
100
AcDbEntity
  8
0
100
AcDbVertex
100
AcDb2dVertex
 10
2764.890824711812
 20
519.4930581094048
 30
0.0
  0
VERTEX
  5
118
330
112
100
AcDbEntity
  8
0
100
AcDbVertex
100
AcDb2dVertex
 10
2673.575841121573
 20
532.675547178043
 30
0.0
  0
VERTEX
  5
119
330
112
100
AcDbEntity
  8
0
100
AcDbVertex
100
AcDb2dVertex
 10
2582.55267080892
 20
538.9664115037767
 30
0.0
  0
VERTEX
  5
11A
330
112
100
AcDbEntity
  8
0
100
AcDbVertex
100
AcDb2dVertex
 10
2492.619062733343
 20
533.7913908748121
 30
0.0
  0
VERTEX
  5
11B
330
112
100
AcDbEntity
  8
0
100
AcDbVertex
100
AcDb2dVertex
 10
2425.988269795404
 20
520.6864889846736
 30
0.0
  0
VERTEX
  5
11C
330
112
100
AcDbEntity
  8
0
100
AcDbVertex
100
AcDb2dVertex
 10
2359.84274220892
 20
502.3325939021842
 30
0.0
  0
VERTEX
  5
11D
330
112
100
AcDbEntity
  8
0
100
AcDbVertex
100
AcDb2dVertex
 10
2295.855165274688
 20
478.1812857079463
 30
0.0
  0
VERTEX
  5
11E
330
112
100
AcDbEntity
  8
0
100
AcDbVertex
100
AcDb2dVertex
 10
2238.540927488563
 20
442.3579834774378
 30
0.0
  0
VERTEX
  5
11F
330
112
100
AcDbEntity
  8
0
100
AcDbVertex
100
AcDb2dVertex
 10
2190.885495774047
 20
393.2400955607667
 30
0.0
  0
VERTEX
  5
120
330
112
100
AcDbEntity
  8
0
100
AcDbVertex
100
AcDb2dVertex
 10
2153.54782968279
 20
335.3960746379257
 30
0.0
  0
VERTEX
  5
121
330
112
100
AcDbEntity
  8
0
100
AcDbVertex
100
AcDb2dVertex
 10
2127.726972986931
 20
272.341309891832
 30
0.0
  0
VERTEX
  5
122
330
112
100
AcDbEntity
  8
0
100
AcDbVertex
100
AcDb2dVertex
 10
2115.763682161973
 20
205.2712591616962
 30
0.0
  0
VERTEX
  5
123
330
112
100
AcDbEntity
  8
0
100
AcDbVertex
100
AcDb2dVertex
 10
2118.353171625935
 20
144.6862734723349
 30
0.0
  0
VERTEX
  5
124
330
112
100
AcDbEntity
  8
0
100
AcDbVertex
100
AcDb2dVertex
 10
2133.941169937029
 20
86.08953024894295
 30
0.0
  0
VERTEX
  5
125
330
112
100
AcDbEntity
  8
0
100
AcDbVertex
100
AcDb2dVertex
 10
2161.166682560668
 20
31.53833341696485
 30
0.0
  0
VERTEX
  5
126
330
112
100
AcDbEntity
  8
0
100
AcDbVertex
100
AcDb2dVertex
 10
2198.484036822011
 20
-16.47868457829994
 30
0.0
  0
VERTEX
  5
127
330
112
100
AcDbEntity
  8
0
100
AcDbVertex
100
AcDb2dVertex
 10
2244.682119424115
 20
-54.27323485695356
 30
0.0
  0
VERTEX
  5
128
330
112
100
AcDbEntity
  8
0
100
AcDbVertex
100
AcDb2dVertex
 10
2297.970493505167
 20
-81.62145201172844
 30
0.0
  0
VERTEX
  5
129
330
112
100
AcDbEntity
  8
0
100
AcDbVertex
100
AcDb2dVertex
 10
2376.076046636271
 20
-106.53815203292
 30
0.0
  0
VERTEX
  5
12A
330
112
100
AcDbEntity
  8
0
100
AcDbVertex
100
AcDb2dVertex
 10
2457.219291890355
 20
-124.3278669157327
 30
0.0
  0
VERTEX
  5
12B
330
112
100
AcDbEntity
  8
0
100
AcDbVertex
100
AcDb2dVertex
 10
2536.986205119854
 20
-140.7221157940811
 30
0.0
  0
VERTEX
  5
12C
330
112
100
AcDbEntity
  8
0
100
AcDbVertex
100
AcDb2dVertex
 10
2595.420466768287
 20
-153.741036946767
 30
0.0
  0
VERTEX
  5
12D
330
112
100
AcDbEntity
  8
0
100
AcDbVertex
100
AcDb2dVertex
 10
2652.838947104141
 20
-168.8546431129863
 30
0.0
  0
VERTEX
  5
12E
330
112
100
AcDbEntity
  8
0
100
AcDbVertex
100
AcDb2dVertex
 10
2681.623775579946
 20
-179.0415844240418
 30
0.0
  0
VERTEX
  5
12F
330
112
100
AcDbEntity
  8
0
100
AcDbVertex
100
AcDb2dVertex
 10
2710.524707296787
 20
-192.5919136356469
 30
0.0
  0
VERTEX
  5
130
330
112
100
AcDbEntity
  8
0
100
AcDbVertex
100
AcDb2dVertex
 10
2733.89879845305
 20
-211.9298137544028
 30
0.0
  0
VERTEX
  5
131
330
112
100
AcDbEntity
  8
0
100
AcDbVertex
100
AcDb2dVertex
 10
2740.343886079735
 20
-224.8054829849715
 30
0.0
  0
VERTEX
  5
132
330
112
100
AcDbEntity
  8
0
100
AcDbVertex
100
AcDb2dVertex
 10
2742.529566027881
 20
-239.6453212860525
 30
0.0
  0
VERTEX
  5
133
330
112
100
AcDbEntity
  8
0
100
AcDbVertex
100
AcDb2dVertex
 10
2737.937921790729
 20
-267.5358093635621
 30
0.0
  0
VERTEX
  5
134
330
112
100
AcDbEntity
  8
0
100
AcDbVertex
100
AcDb2dVertex
 10
2725.616391861286
 20
-292.4361900106541
 30
0.0
  0
VERTEX
  5
135
330
112
100
AcDbEntity
  8
0
100
AcDbVertex
100
AcDb2dVertex
 10
2707.384112342872
 20
-311.8628695672958
 30
0.0
  0
VERTEX
  5
136
330
112
100
AcDbEntity
  8
0
100
AcDbVertex
100
AcDb2dVertex
 10
2671.743126702047
 20
-330.6421652362569
 30
0.0
  0
VERTEX
  5
137
330
112
100
AcDbEntity
  8
0
100
AcDbVertex
100
AcDb2dVertex
 10
2632.439770271119
 20
-341.2243101453579
 30
0.0
  0
VERTEX
  5
138
330
112
100
AcDbEntity
  8
0
100
AcDbVertex
100
AcDb2dVertex
 10
2552.29852145996
 20
-349.0800633280521
 30
0.0
  0
VERTEX
  5
139
330
112
100
AcDbEntity
  8
0
100
AcDbVertex
100
AcDb2dVertex
 10
2471.105777330984
 20
-344.807342115164
 30
0.0
  0
VERTEX
  5
13A
330
112
100
AcDbEntity
  8
0
100
AcDbVertex
100
AcDb2dVertex
 10
2364.566259518102
 20
-322.0499227101281
 30
0.0
  0
VERTEX
  5
13B
330
112
100
AcDbEntity
  8
0
100
AcDbVertex
100
AcDb2dVertex
 10
2264.295660185393
 20
-281.3354907261898
 30
0.0
  0
VERTEX
  5
13C
330
112
100
AcDbEntity
  8
0
100
AcDbVertex
100
AcDb2dVertex
 10
2170.931879954415
 20
-228.1275041319811
 30
0.0
  0
VERTEX
  5
13D
330
112
100
AcDbEntity
  8
0
100
AcDbVertex
100
AcDb2dVertex
 10
2083.340652122863
 20
-447.1055737108625
 30
0.0
  0
VERTEX
  5
13E
330
112
100
AcDbEntity
  8
0
100
AcDbVertex
100
AcDb2dVertex
 10
2158.334540437074
 20
-499.4057166902513
 30
0.0
  0
VERTEX
  5
13F
330
112
100
AcDbEntity
  8
0
100
AcDbVertex
100
AcDb2dVertex
 10
2238.185745694137
 20
-541.935300579894
 30
0.0
  0
VERTEX
  5
140
330
112
100
AcDbEntity
  8
0
100
AcDbVertex
100
AcDb2dVertex
 10
2324.975474168768
 20
-569.3381096853855
 30
0.0
  0
VERTEX
  5
141
330
112
100
AcDbEntity
  8
0
100
AcDbVertex
100
AcDb2dVertex
 10
2415.566519566215
 20
-584.5558197921465
 30
0.0
  0
VERTEX
  5
142
330
112
100
AcDbEntity
  8
0
100
AcDbVertex
100
AcDb2dVertex
 10
2506.637226852838
 20
-591.0420643787345
 30
0.0
  0
VERTEX
  5
143
330
112
100
AcDbEntity
  8
0
100
AcDbVertex
100
AcDb2dVertex
 10
2597.49937658709
 20
-589.5333646991647
 30
0.0
  0
VERTEX
  5
144
330
112
100
AcDbEntity
  8
0
100
AcDbVertex
100
AcDb2dVertex
 10
2688.533713684527
 20
-579.6349232654879
 30
0.0
  0
VERTEX
  5
145
330
112
100
AcDbEntity
  8
0
100
AcDbVertex
100
AcDb2dVertex
 10
2778.701025040178
 20
-559.9614545939135
 30
0.0
  0
VERTEX
  5
146
330
112
100
AcDbEntity
  8
0
100
AcDbVertex
100
AcDb2dVertex
 10
2864.460139168704
 20
-527.3927315921136
 30
0.0
  0
VERTEX
  5
147
330
112
100
AcDbEntity
  8
0
100
AcDbVertex
100
AcDb2dVertex
 10
2912.220908063113
 20
-500.2905086144562
 30
0.0
  0
VERTEX
  5
148
330
112
100
AcDbEntity
  8
0
100
AcDbVertex
100
AcDb2dVertex
 10
2956.1037742436
 20
-466.6659438497919
 30
0.0
  0
VERTEX
  5
149
330
112
100
AcDbEntity
  8
0
100
AcDbVertex
100
AcDb2dVertex
 10
2993.262337849692
 20
-426.1666721239705
 30
0.0
  0
VERTEX
  5
14A
330
112
100
AcDbEntity
  8
0
100
AcDbVertex
100
AcDb2dVertex
 10
3019.347303836026
 20
-378.802646968833
 30
0.0
  0
VERTEX
  5
14B
330
112
100
AcDbEntity
  8
0
100
AcDbVertex
100
AcDb2dVertex
 10
3034.083807131116
 20
-326.0626673975106
 30
0.0
  0
VERTEX
  5
14C
330
112
100
AcDbEntity
  8
0
100
AcDbVertex
100
AcDb2dVertex
 10
3041.737233858562
 20
-264.7389959643737
 30
0.0
  0
VERTEX
  5
14D
330
112
100
AcDbEntity
  8
0
100
AcDbVertex
100
AcDb2dVertex
 10
3040.926285052621
 20
-203.7400505641009
 30
0.0
  0
VERTEX
  5
14E
330
112
100
AcDbEntity
  8
0
100
AcDbVertex
100
AcDb2dVertex
 10
3026.6749615399
 20
-145.3345803352002
 30
0.0
  0
VERTEX
  5
14F
330
112
100
AcDbEntity
  8
0
100
AcDbVertex
100
AcDb2dVertex
 10
2997.864347584667
 20
-91.53039762245683
 30
0.0
  0
VERTEX
  5
150
330
112
100
AcDbEntity
  8
0
100
AcDbVertex
100
AcDb2dVertex
 10
2958.54709998471
 20
-44.0977962024923
 30
0.0
  0
VERTEX
  5
151
330
112
100
AcDbEntity
  8
0
100
AcDbVertex
100
AcDb2dVertex
 10
2912.064530519868
 20
-4.164860612530968
 30
0.0
  0
VERTEX
  5
152
330
112
100
AcDbEntity
  8
0
100
AcDbVertex
100
AcDb2dVertex
 10
2832.797313077633
 20
41.36654629153933
 30
0.0
  0
VERTEX
  5
153
330
112
100
AcDbEntity
  8
0
100
AcDbVertex
100
AcDb2dVertex
 10
2746.110372295155
 20
70.27415622277282
 30
0.0
  0
VERTEX
  5
154
330
112
100
AcDbEntity
  8
0
100
AcDbVertex
100
AcDb2dVertex
 10
2657.788480253734
 20
88.60619760114989
 30
0.0
  0
VERTEX
  5
155
330
112
100
AcDbEntity
  8
0
100
AcDbVertex
100
AcDb2dVertex
 10
2543.36852576817
 20
114.6492823553012
 30
0.0
  0
VERTEX
  5
156
330
112
100
AcDbEntity
  8
0
100
AcDbVertex
100
AcDb2dVertex
 10
2511.917437442128
 20
123.4050826366851
 30
0.0
  0
VERTEX
  5
157
330
112
100
AcDbEntity
  8
0
100
AcDbVertex
100
AcDb2dVertex
 10
2479.321456393116
 20
133.5022453694024
 30
0.0
  0
VERTEX
  5
158
330
112
100
AcDbEntity
  8
0
100
AcDbVertex
100
AcDb2dVertex
 10
2449.180283814956
 20
147.1851161998397
 30
0.0
  0
VERTEX
  5
159
330
112
100
AcDbEntity
  8
0
100
AcDbVertex
100
AcDb2dVertex
 10
2434.010058027895
 20
159.6364330690316
 30
0.0
  0
VERTEX
  5
15A
330
112
100
AcDbEntity
  8
0
100
AcDbVertex
100
AcDb2dVertex
 10
2424.249040778745
 20
176.0850707014774
 30
0.0
  0
VERTEX
  5
15B
330
112
100
AcDbEntity
  8
0
100
AcDbVertex
100
AcDb2dVertex
 10
2420.660417443538
 20
196.117307408731
 30
0.0
  0
VERTEX
  5
15C
330
112
100
AcDbEntity
  8
0
100
AcDbVertex
100
AcDb2dVertex
 10
2422.321751359705
 20
216.8864290342106
 30
0.0
  0
VERTEX
  5
15D
330
112
100
AcDbEntity
  8
0
100
AcDbVertex
100
AcDb2dVertex
 10
2437.513706442431
 20
254.3586204000599
 30
0.0
  0
VERTEX
  5
15E
330
112
100
AcDbEntity
  8
0
100
AcDbVertex
100
AcDb2dVertex
 10
2463.839199495966
 20
285.4184951644565
 30
0.0
  0
VERTEX
  5
15F
330
112
100
AcDbEntity
  8
0
100
AcDbVertex
100
AcDb2dVertex
 10
2493.043465757305
 20
300.8658954890065
 30
0.0
  0
VERTEX
  5
160
330
112
100
AcDbEntity
  8
0
100
AcDbVertex
100
AcDb2dVertex
 10
2526.765092470496
 20
306.8304331468347
 30
0.0
  0
VERTEX
  5
161
330
112
100
AcDbEntity
  8
0
100
AcDbVertex
100
AcDb2dVertex
 10
2562.401815442462
 20
307.2362281055924
 30
0.0
  0
VERTEX
  5
162
330
112
100
AcDbEntity
  8
0
100
AcDbVertex
100
AcDb2dVertex
 10
2597.698529504629
 20
305.4940328587618
 30
0.0
  0
VERTEX
  5
163
330
112
100
AcDbEntity
  8
0
100
AcDbVertex
100
AcDb2dVertex
 10
2703.541875789009
 20
290.0823510040597
 30
0.0
  0
VERTEX
  5
164
330
112
100
AcDbEntity
  8
0
100
AcDbVertex
100
AcDb2dVertex
 10
2779.519043247062
 20
266.5529158038871
 30
0.0
  0
VERTEX
  5
165
330
112
100
AcDbEntity
  8
0
100
AcDbVertex
100
AcDb2dVertex
 10
2852.986611073131
 20
233.38586758927
 30
0.0
  0
VERTEX
  5
166
330
112
100
AcDbEntity
  8
0
100
AcDbVertex
100
AcDb2dVertex
 10
2925.189675170565
 20
195.2300970538568
 30
0.0
  0
SEQEND
  5
167
330
112
100
AcDbEntity
  8
ANSYS_LOGO_2D
  0
POLYLINE
  5
168
330
1F
100
AcDbEntity
  8
ANSYS_LOGO_2D
100
AcDb2dPolyline
 66
     1
 10
0.0
 20
0.0
 30
0.0
 70
     1
  0
VERTEX
  5
169
330
168
100
AcDbEntity
  8
0
100
AcDbVertex
100
AcDb2dVertex
 10
-3400.0
 20
-1100.0
 30
0.0
  0
VERTEX
  5
16A
330
168
100
AcDbEntity
  8
0
100
AcDbVertex
100
AcDb2dVertex
 10
3200.0
 20
-1100.0
 30
0.0
  0
VERTEX
  5
16B
330
168
100
AcDbEntity
  8
0
100
AcDbVertex
100
AcDb2dVertex
 10
3200.0
 20
1100.0
 30
0.0
  0
VERTEX
  5
16C
330
168
100
AcDbEntity
  8
0
100
AcDbVertex
100
AcDb2dVertex
 10
-3400.0
 20
1100.0
 30
0.0
  0
VERTEX
  5
16D
330
168
100
AcDbEntity
  8
0
100
AcDbVertex
100
AcDb2dVertex
 10
-3400.0
 20
-1100.0
 30
0.0
  0
SEQEND
  5
16E
330
168
100
AcDbEntity
  8
ANSYS_LOGO_2D
  0
ENDSEC
  0
SECTION
  2
OBJECTS
  0
DICTIONARY
  5
C
330
0
100
AcDbDictionary
  3
ACAD_GROUP
350
D
  3
ACAD_LAYOUT
350
1A
  3
ACAD_MATERIAL
350
43
  3
ACAD_MLEADERSTYLE
350
6B
  3
ACAD_MLINESTYLE
350
17
  3
ACAD_PLOTSETTINGS
350
19
  3
ACAD_SCALELIST
350
47
  3
ACAD_VISUALSTYLE
350
2A
  3
ACDBVARIABLEDICTIONARY
350
16F
1001
ACAD
1000
TREAT_AS_HARD
1070
     0
  0
DICTIONARY
  5
D
102
{ACAD_REACTORS
330
C
102
}
330
C
100
AcDbDictionary
1001
ACAD
1000
TREAT_AS_HARD
1070
     0
  0
DICTIONARY
  5
1A
102
{ACAD_REACTORS
330
C
102
}
330
C
100
AcDbDictionary
1001
ACAD
1000
TREAT_AS_HARD
1070
     0
  0
DICTIONARY
  5
43
102
{ACAD_REACTORS
330
C
102
}
330
C
100
AcDbDictionary
  3
BYBLOCK
350
45
  3
BYLAYER
350
44
  3
GLOBAL
350
46
1001
ACAD
1000
TREAT_AS_HARD
1070
     0
  0
DICTIONARY
  5
6B
102
{ACAD_REACTORS
330
C
102
}
330
C
100
AcDbDictionary
  3
STANDARD
350
6C
1001
ACAD
1000
TREAT_AS_HARD
1070
     0
  0
DICTIONARY
  5
17
102
{ACAD_REACTORS
330
C
102
}
330
C
100
AcDbDictionary
  3
STANDARD
350
18
1001
ACAD
1000
TREAT_AS_HARD
1070
     0
  0
DICTIONARY
  5
19
102
{ACAD_REACTORS
330
C
102
}
330
C
100
AcDbDictionary
1001
ACAD
1000
TREAT_AS_HARD
1070
     0
  0
DICTIONARY
  5
47
102
{ACAD_REACTORS
330
C
102
}
330
C
100
AcDbDictionary
  3
A0
350
48
  3
A1
350
49
  3
A2
350
4A
  3
A3
350
4B
  3
A4
350
4C
  3
A5
350
4D
  3
A6
350
4E
  3
A7
350
4F
  3
A8
350
50
  3
A9
350
51
  3
B0
350
52
  3
B1
350
53
  3
B2
350
54
  3
B3
350
55
  3
B4
350
56
  3
B5
350
57
  3
B6
350
58
  3
B7
350
59
  3
B8
350
5A
  3
B9
350
5B
  3
C0
350
5C
  3
C1
350
5D
  3
C2
350
5E
  3
C3
350
5F
  3
C4
350
60
  3
C5
350
61
  3
C6
350
62
  3
C7
350
63
  3
C8
350
64
  3
C9
350
65
  3
D0
350
66
  3
D1
350
67
  3
D2
350
68
1001
ACAD
1000
TREAT_AS_HARD
1070
     0
  0
DICTIONARY
  5
2A
102
{ACAD_REACTORS
330
C
102
}
330
C
100
AcDbDictionary
  3
2DWIREFRAME
350
2F
  3
BASIC
350
32
  3
BRIGHTEN
350
36
  3
COLORCHANGE
350
3A
  3
CONCEPTUAL
350
34
  3
DIM
350
35
  3
EDGECOLOROFF
350
3D
  3
FACEPATTERN
350
39
  3
FLAT
350
2B
  3
FLATWITHEDGES
350
2C
  3
GOURAUD
350
2D
  3
GOURAUDWITHEDGES
350
2E
  3
HIDDEN
350
31
  3
JITTEROFF
350
3B
  3
LINEPATTERN
350
38
  3
OVERHANGOFF
350
3C
  3
REALISTIC
350
33
  3
SHADED
350
42
  3
SHADED_WITH_EDGES
350
41
  3
SHADES_OF_GRAY
350
3E
  3
SKETCHY
350
3F
  3
THICKEN
350
37
  3
WIREFRAME
350
30
  3
X-RAY
350
40
1001
ACAD
1000
TREAT_AS_HARD
1070
     0
  0
DICTIONARY
  5
16F
102
{ACAD_REACTORS
330
C
102
}
330
C
100
AcDbDictionary
  3
CANNOSCALE
350
176
  3
CMLEADERSTYLE
350
171
  3
CTABLESTYLE
350
170
  3
DIMASSOC
350
174
  3
HIDETEXT
350
175
  3
MSLTSCALE
350
177
1001
ACAD
1000
TREAT_AS_HARD
1070
     0
  0
MATERIAL
  5
45
102
{ACAD_REACTORS
330
43
102
}
102
{ACAD_XDICTIONARY
360
17A
102
}
330
43
100
AcDbMaterial
  1
BYBLOCK
  0
MATERIAL
  5
44
102
{ACAD_REACTORS
330
43
102
}
102
{ACAD_XDICTIONARY
360
178
102
}
330
43
100
AcDbMaterial
  1
BYLAYER
  0
MATERIAL
  5
46
102
{ACAD_REACTORS
330
43
102
}
102
{ACAD_XDICTIONARY
360
17C
102
}
330
43
100
AcDbMaterial
  1
GLOBAL
  0
ACAD_PROXY_OBJECT
  5
6C
102
{ACAD_REACTORS
330
6B
102
}
330
6B
100
AcDbZombieObject
 90
      499
 91
      505
 93
      610
310
40901902A4063FBFFFFFE056BD1B81E855B9FC0AD7A3703D0AD73F4214DD185B99185C9900AD7A3703D0AC73F90141901A02B5E8DC0F42B1CFC02B5E8DC0F42B1CFE5764000000000000300FC0
340
14
340
0
340
11
340
0
 94
        0
1001
ACAD_MLEADERVER
1070
     2
  0
MLINESTYLE
  5
18
102
{ACAD_REACTORS
330
17
102
}
330
17
100
AcDbMlineStyle
  2
Standard
 70
     0
  3

 62
   256
 51
90.0
 52
90.0
 71
     2
 49
0.5
 62
   256
  6
BYLAYER
 49
-0.5
 62
   256
  6
BYLAYER
  0
ACAD_PROXY_OBJECT
  5
48
102
{ACAD_REACTORS
330
47
102
}
330
47
100
AcDbZombieObject
 90
      499
 91
      503
 93
       41
310
903313A31580
  0
ACAD_PROXY_OBJECT
  5
49
102
{ACAD_REACTORS
330
47
102
}
330
47
100
AcDbZombieObject
 90
      499
 91
      503
 93
      105
310
903313A324000000000000004000
  0
ACAD_PROXY_OBJECT
  5
4A
102
{ACAD_REACTORS
330
47
102
}
330
47
100
AcDbZombieObject
 90
      499
 91
      503
 93
      105
310
903313A344000000000000104000
  0
ACAD_PROXY_OBJECT
  5
4B
102
{ACAD_REACTORS
330
47
102
}
330
47
100
AcDbZombieObject
 90
      499
 91
      503
 93
      105
310
903313A354000000000000144000
  0
ACAD_PROXY_OBJECT
  5
4C
102
{ACAD_REACTORS
330
47
102
}
330
47
100
AcDbZombieObject
 90
      499
 91
      503
 93
      105
310
903313A384000000000000204000
  0
ACAD_PROXY_OBJECT
  5
4D
102
{ACAD_REACTORS
330
47
102
}
330
47
100
AcDbZombieObject
 90
      499
 91
      503
 93
      113
310
904313A31304000000000000244000
  0
ACAD_PROXY_OBJECT
  5
4E
102
{ACAD_REACTORS
330
47
102
}
330
47
100
AcDbZombieObject
 90
      499
 91
      503
 93
      113
310
904313A31364000000000000304000
  0
ACAD_PROXY_OBJECT
  5
4F
102
{ACAD_REACTORS
330
47
102
}
330
47
100
AcDbZombieObject
 90
      499
 91
      503
 93
      113
310
904313A32304000000000000344000
  0
ACAD_PROXY_OBJECT
  5
50
102
{ACAD_REACTORS
330
47
102
}
330
47
100
AcDbZombieObject
 90
      499
 91
      503
 93
      113
310
904313A333040000000000003E4000
  0
ACAD_PROXY_OBJECT
  5
51
102
{ACAD_REACTORS
330
47
102
}
330
47
100
AcDbZombieObject
 90
      499
 91
      503
 93
      113
310
904313A34304000000000000444000
  0
ACAD_PROXY_OBJECT
  5
52
102
{ACAD_REACTORS
330
47
102
}
330
47
100
AcDbZombieObject
 90
      499
 91
      503
 93
      113
310
904313A35304000000000000494000
  0
ACAD_PROXY_OBJECT
  5
53
102
{ACAD_REACTORS
330
47
102
}
330
47
100
AcDbZombieObject
 90
      499
 91
      503
 93
      121
310
905313A3130304000000000000594000
  0
ACAD_PROXY_OBJECT
  5
54
102
{ACAD_REACTORS
330
47
102
}
330
47
100
AcDbZombieObject
 90
      499
 91
      503
 93
      105
310
903323A310000000000000010100
  0
ACAD_PROXY_OBJECT
  5
55
102
{ACAD_REACTORS
330
47
102
}
330
47
100
AcDbZombieObject
 90
      499
 91
      503
 93
      105
310
903343A310000000000000410100
  0
ACAD_PROXY_OBJECT
  5
56
102
{ACAD_REACTORS
330
47
102
}
330
47
100
AcDbZombieObject
 90
      499
 91
      503
 93
      105
310
903383A310000000000000810100
  0
ACAD_PROXY_OBJECT
  5
57
102
{ACAD_REACTORS
330
47
102
}
330
47
100
AcDbZombieObject
 90
      499
 91
      503
 93
      113
310
90431303A310000000000000910100
  0
ACAD_PROXY_OBJECT
  5
58
102
{ACAD_REACTORS
330
47
102
}
330
47
100
AcDbZombieObject
 90
      499
 91
      503
 93
      121
310
9053130303A310000000000001650100
  0
ACAD_PROXY_OBJECT
  5
59
102
{ACAD_REACTORS
330
47
102
}
330
47
100
AcDbZombieObject
 90
      499
 91
      503
 93
      257
310
90E312F31323822203D2031272D3022000000000000200FC000000000000284000
  0
ACAD_PROXY_OBJECT
  5
5A
102
{ACAD_REACTORS
330
47
102
}
330
47
100
AcDbZombieObject
 90
      499
 91
      503
 93
      249
310
90D312F363422203D2031272D3022000000000000240FC000000000000284000
  0
ACAD_PROXY_OBJECT
  5
5B
102
{ACAD_REACTORS
330
47
102
}
330
47
100
AcDbZombieObject
 90
      499
 91
      503
 93
      249
310
90D312F333222203D2031272D3022000000000000280FC000000000000284000
  0
ACAD_PROXY_OBJECT
  5
5C
102
{ACAD_REACTORS
330
47
102
}
330
47
100
AcDbZombieObject
 90
      499
 91
      503
 93
      249
310
90D312F313622203D2031272D30220000000000002C0FC000000000000284000
  0
ACAD_PROXY_OBJECT
  5
5D
102
{ACAD_REACTORS
330
47
102
}
330
47
100
AcDbZombieObject
 90
      499
 91
      503
 93
      249
310
90D332F333222203D2031272D30220000000000002E0FC000000000000284000
  0
ACAD_PROXY_OBJECT
  5
5E
102
{ACAD_REACTORS
330
47
102
}
330
47
100
AcDbZombieObject
 90
      499
 91
      503
 93
      241
310
90C312F3822203D2031272D3022000000000000300FC000000000000284000
  0
ACAD_PROXY_OBJECT
  5
5F
102
{ACAD_REACTORS
330
47
102
}
330
47
100
AcDbZombieObject
 90
      499
 91
      503
 93
      249
310
90D332F313622203D2031272D3022000000000000320FC000000000000284000
  0
ACAD_PROXY_OBJECT
  5
60
102
{ACAD_REACTORS
330
47
102
}
330
47
100
AcDbZombieObject
 90
      499
 91
      503
 93
      241
310
90C312F3422203D2031272D3022000000000000340FC000000000000284000
  0
ACAD_PROXY_OBJECT
  5
61
102
{ACAD_REACTORS
330
47
102
}
330
47
100
AcDbZombieObject
 90
      499
 91
      503
 93
      241
310
90C332F3822203D2031272D3022000000000000360FC000000000000284000
  0
ACAD_PROXY_OBJECT
  5
62
102
{ACAD_REACTORS
330
47
102
}
330
47
100
AcDbZombieObject
 90
      499
 91
      503
 93
      241
310
90C312F3222203D2031272D3022000000000000380FC000000000000284000
  0
ACAD_PROXY_OBJECT
  5
63
102
{ACAD_REACTORS
330
47
102
}
330
47
100
AcDbZombieObject
 90
      499
 91
      503
 93
      241
310
90C332F3422203D2031272D30220000000000003A0FC000000000000284000
  0
ACAD_PROXY_OBJECT
  5
64
102
{ACAD_REACTORS
330
47
102
}
330
47
100
AcDbZombieObject
 90
      499
 91
      503
 93
      161
310
90A3122203D2031272D30224000000000000284000
  0
ACAD_PROXY_OBJECT
  5
65
102
{ACAD_REACTORS
330
47
102
}
330
47
100
AcDbZombieObject
 90
      499
 91
      503
 93
      257
310
90E312D312F3222203D2031272D30220000000000003E0FC000000000000284000
  0
ACAD_PROXY_OBJECT
  5
66
102
{ACAD_REACTORS
330
47
102
}
330
47
100
AcDbZombieObject
 90
      499
 91
      503
 93
      225
310
90A3322203D2031272D302200000000000002100000000000000284000
  0
ACAD_PROXY_OBJECT
  5
67
102
{ACAD_REACTORS
330
47
102
}
330
47
100
AcDbZombieObject
 90
      499
 91
      503
 93
      225
310
90A3622203D2031272D302200000000000006100000000000000284000
  0
ACAD_PROXY_OBJECT
  5
68
102
{ACAD_REACTORS
330
47
102
}
330
47
100
AcDbZombieObject
 90
      499
 91
      503
 93
      249
310
90D31272D3022203D2031272D30220000000000000A100000000000000284000
  0
ACAD_PROXY_OBJECT
  5
2F
102
{ACAD_REACTORS
330
2A
102
}
330
2A
100
AcDbZombieObject
 90
      499
 91
      501
 93
      436
310
42CC9915DA5C99599C985B595049028333333333333E33F0000000000000F90107901411070040501600405405064090741402480A0340
1001
ACAD
1000
AcDbSavedByObjectVersion
1070
     0
  0
ACAD_PROXY_OBJECT
  5
32
102
{ACAD_REACTORS
330
2A
102
}
330
2A
100
AcDbZombieObject
 90
      499
 91
      501
 93
      388
310
4150985CDA58D07406404333333333333E33F0000000000000F90107A41107004050150841D405064090741402480A0350
1001
ACAD
1000
AcDbSavedByObjectVersion
1070
     0
  0
ACAD_PROXY_OBJECT
  5
36
102
{ACAD_REACTORS
330
2A
102
}
330
2A
100
AcDbZombieObject
 90
      499
 91
      501
 93
      428
310
42109C9A59DA1D195B90C409028333333333333E33F0000000000000F9010790141107004050150841D405064090741402480A029950
1001
ACAD
1000
AcDbSavedByObjectVersion
1070
     0
  0
ACAD_PROXY_OBJECT
  5
3A
102
{ACAD_REACTORS
330
2A
102
}
330
2A
100
AcDbZombieObject
 90
      499
 91
      501
 93
      452
310
42D0DBDB1BDC90DA185B99D95104090240C333333333333E33F0000000000000F90108901411070040501508421405064090741402480A0350
1001
ACAD
1000
AcDbSavedByObjectVersion
1070
     0
  0
ACAD_PROXY_OBJECT
  5
34
102
{ACAD_REACTORS
330
2A
102
}
330
2A
100
AcDbZombieObject
 90
      499
 91
      501
 93
      500
310
4290DBDB98D95C1D1D585B10940D028333333333333E33F0000000000000F90107902409070040501000000000018199010841D405064090740C02480A0340
1001
ACAD
1000
AcDbSavedByObjectVersion
1070
     0
  0
ACAD_PROXY_OBJECT
  5
35
102
{ACAD_REACTORS
330
2A
102
}
330
2A
100
AcDbZombieObject
 90
      499
 91
      501
 93
      412
310
40D11A5B50B409028333333333333E33F0000000000000F9010790141107004050150841D405064090741402480A02677FFFFFD0
1001
ACAD
1000
AcDbSavedByObjectVersion
1070
     0
  0
ACAD_PROXY_OBJECT
  5
3D
102
{ACAD_REACTORS
330
2A
102
}
330
2A
100
AcDbZombieObject
 90
      499
 91
      501
 93
      452
310
43115919D950DBDB1BDC93D999916409028333333333333E33F0000000000000F9010790141107004050150841D405064090741402480A0350
1001
ACAD
1000
AcDbSavedByObjectVersion
1070
     0
  0
ACAD_PROXY_OBJECT
  5
39
102
{ACAD_REACTORS
330
2A
102
}
330
2A
100
AcDbZombieObject
 90
      499
 91
      501
 93
      444
310
42D19858D95C185D1D195C9B90F409028333333333333E33F0000000000000F9010790141107004050150841D405064090741402480A0350
1001
ACAD
1000
AcDbSavedByObjectVersion
1070
     0
  0
ACAD_PROXY_OBJECT
  5
2B
102
{ACAD_REACTORS
330
2A
102
}
330
2A
100
AcDbZombieObject
 90
      499
 91
      501
 93
      380
310
41119B185D240901404333333333333E33F0000000000000F9010740A907004050150841D405064090741402480A1B50
1001
ACAD
1000
AcDbSavedByObjectVersion
1070
     0
  0
ACAD_PROXY_OBJECT
  5
2C
102
{ACAD_REACTORS
330
2A
102
}
330
2A
100
AcDbZombieObject
 90
      499
 91
      501
 93
      468
310
43519B185D15DA5D1A115919D95CD0140901404333333333333E33F0000000000000F90107409019070040501600405405064090741402480A1B50
1001
ACAD
1000
AcDbSavedByObjectVersion
1070
     0
  0
ACAD_PROXY_OBJECT
  5
2D
102
{ACAD_REACTORS
330
2A
102
}
330
2A
100
AcDbZombieObject
 90
      499
 91
      501
 93
      404
310
41D1DBDD5C985D5910240902404333333333333E33F0000000000000F9010740A9070040501641D405064090741402480A1B50
1001
ACAD
1000
AcDbSavedByObjectVersion
1070
     0
  0
ACAD_PROXY_OBJECT
  5
2E
102
{ACAD_REACTORS
330
2A
102
}
330
2A
100
AcDbZombieObject
 90
      499
 91
      501
 93
      492
310
4411DBDD5C985D5915DA5D1A115919D95CD0340902404333333333333E33F0000000000000F90107409019070040501600405405064090741402480A1B50
1001
ACAD
1000
AcDbSavedByObjectVersion
1070
     0
  0
ACAD_PROXY_OBJECT
  5
31
102
{ACAD_REACTORS
330
2A
102
}
330
2A
100
AcDbZombieObject
 90
      499
 91
      501
 93
      476
310
41921A5919195B90640502408333333333333E33F0000000000000F901079024090700405020000000000001110200405405064090740C02480A0340
1001
ACAD
1000
AcDbSavedByObjectVersion
1070
     0
  0
ACAD_PROXY_OBJECT
  5
3B
102
{ACAD_REACTORS
330
2A
102
}
330
2A
100
AcDbZombieObject
 90
      499
 91
      501
 93
      428
310
42529A5D1D195C93D999914409028333333333333E33F0000000000000F9010790141107004050150A41D405064090741402480A0350
1001
ACAD
1000
AcDbSavedByObjectVersion
1070
     0
  0
ACAD_PROXY_OBJECT
  5
38
102
{ACAD_REACTORS
330
2A
102
}
330
2A
100
AcDbZombieObject
 90
      499
 91
      501
 93
      444
310
42D31A5B995C185D1D195C9B90E409028333333333333E33F0000000000000F9010790141107004050750841D405064090741402483A0350
1001
ACAD
1000
AcDbSavedByObjectVersion
1070
     0
  0
ACAD_PROXY_OBJECT
  5
3C
102
{ACAD_REACTORS
330
2A
102
}
330
2A
100
AcDbZombieObject
 90
      499
 91
      501
 93
      444
310
42D3DD995C9A185B99D3D999915409028333333333333E33F0000000000000F9010790141107004050150941D405064090741402480A0350
1001
ACAD
1000
AcDbSavedByObjectVersion
1070
     0
  0
ACAD_PROXY_OBJECT
  5
33
102
{ACAD_REACTORS
330
2A
102
}
330
2A
100
AcDbZombieObject
 90
      499
 91
      501
 93
      428
310
425499585B1A5CDD1A58D08409038333333333333E33F0000000000000F9010740A907004050150800405405064090740C02480A1B40
1001
ACAD
1000
AcDbSavedByObjectVersion
1070
     0
  0
ACAD_PROXY_OBJECT
  5
42
102
{ACAD_REACTORS
330
2A
102
}
330
2A
100
AcDbZombieObject
 90
      499
 91
      501
 93
      420
310
4194DA1859195911B40902404333333333333E33F0000000000000F9010740A41107004050150800405405064090840C02480A0B40
1001
ACAD
1000
AcDbSavedByObjectVersion
1070
     0
  0
ACAD_PROXY_OBJECT
  5
41
102
{ACAD_REACTORS
330
2A
102
}
330
2A
100
AcDbZombieObject
 90
      499
 91
      501
 93
      516
310
4454DA18591959081DDA5D1A08195919D95CD1A40902404333333333333E33F0000000000000F901074090142907004050250800405405064090740C02480A0B40
1001
ACAD
1000
AcDbSavedByObjectVersion
1070
     0
  0
ACAD_PROXY_OBJECT
  5
3E
102
{ACAD_REACTORS
330
2A
102
}
330
2A
100
AcDbZombieObject
 90
      499
 91
      501
 93
      532
310
4394DA1859195CC81BD98811DC985E5174090240C333333333333E33F0000000000000F901079024090741D01000000000000111010841D405064090740C02480A0340
1001
ACAD
1000
AcDbSavedByObjectVersion
1070
     0
  0
ACAD_PROXY_OBJECT
  5
3F
102
{ACAD_REACTORS
330
2A
102
}
330
2A
100
AcDbZombieObject
 90
      499
 91
      501
 93
      476
310
41D4DAD95D18DA1E51840502408333333333333E33F0000000000000F901079024090741D01000000000000111010B41D405064090741802480A0340
1001
ACAD
1000
AcDbSavedByObjectVersion
1070
     0
  0
ACAD_PROXY_OBJECT
  5
37
102
{ACAD_REACTORS
330
2A
102
}
330
2A
100
AcDbZombieObject
 90
      499
 91
      501
 93
      412
310
41D51A1A58DAD95B90D409028333333333333E33F0000000000000F9010790141107004050150C41D405064090741402480A0350
1001
ACAD
1000
AcDbSavedByObjectVersion
1070
     0
  0
ACAD_PROXY_OBJECT
  5
30
102
{ACAD_REACTORS
330
2A
102
}
330
2A
100
AcDbZombieObject
 90
      499
 91
      501
 93
      420
310
4255DA5C99599C985B595059028333333333333E33F0000000000000F90107901411070040501600405405064090740C02480A0340
1001
ACAD
1000
AcDbSavedByObjectVersion
1070
     0
  0
ACAD_PROXY_OBJECT
  5
40
102
{ACAD_REACTORS
330
2A
102
}
330
2A
100
AcDbZombieObject
 90
      499
 91
      501
 93
      404
310
41560B54985E51940902404000000000000E03F0000000000000F9010740501907004050150841D405064090740C02480A1B40
1001
ACAD
1000
AcDbSavedByObjectVersion
1070
     0
  0
DICTIONARYVAR
  5
176
102
{ACAD_REACTORS
330
16F
102
}
330
16F
100
DictionaryVariables
280
     0
  1
1:1
  0
DICTIONARYVAR
  5
171
102
{ACAD_REACTORS
330
16F
102
}
330
16F
100
DictionaryVariables
280
     0
  1
Standard
  0
DICTIONARYVAR
  5
170
102
{ACAD_REACTORS
330
16F
102
}
330
16F
100
DictionaryVariables
280
     0
  1
Standard
  0
DICTIONARYVAR
  5
174
102
{ACAD_REACTORS
330
16F
102
}
330
16F
100
DictionaryVariables
280
     0
  1
2
  0
DICTIONARYVAR
  5
175
102
{ACAD_REACTORS
330
16F
102
}
330
16F
100
DictionaryVariables
280
     0
  1
1
  0
DICTIONARYVAR
  5
177
102
{ACAD_REACTORS
330
16F
102
}
330
16F
100
DictionaryVariables
280
     0
  1
1
  0
DICTIONARY
  5
17A
330
45
100
AcDbDictionary
  3
ACAD_XREC_ROUNDTRIP
360
17B
1001
ACAD
1000
TREAT_AS_HARD
1070
     1
  0
DICTIONARY
  5
178
330
44
100
AcDbDictionary
  3
ACAD_XREC_ROUNDTRIP
360
179
1001
ACAD
1000
TREAT_AS_HARD
1070
     1
  0
DICTIONARY
  5
17C
330
46
100
AcDbDictionary
  3
ACAD_XREC_ROUNDTRIP
360
17D
1001
ACAD
1000
TREAT_AS_HARD
1070
     1
  0
XRECORD
  5
17B
102
{ACAD_REACTORS
330
17A
102
}
330
17A
100
AcDbXrecord
102
MATERIAL
148
0.0
149
0.0
149
0.0
 93
        0
 94
      127
282
     0
 72
     1
 77
     1
171
     1
175
     1
179
     1
273
     0
  0
XRECORD
  5
179
102
{ACAD_REACTORS
330
178
102
}
330
178
100
AcDbXrecord
102
MATERIAL
148
0.0
149
0.0
149
0.0
 93
        0
 94
      127
282
     0
 72
     1
 77
     1
171
     1
175
     1
179
     1
273
     0
  0
XRECORD
  5
17D
102
{ACAD_REACTORS
330
17C
102
}
330
17C
100
AcDbXrecord
102
MATERIAL
148
0.0
149
0.0
149
0.0
 93
        0
 94
      127
282
     0
 72
     1
 77
     1
171
     1
175
     1
179
     1
273
     0
  0
ENDSEC
  0
EOF
