<?xml version="1.0" standalone="no"?>
<!DOCTYPE svg PUBLIC "-//W3C//DTD SVG 20010904//EN"
 "http://www.w3.org/TR/2001/REC-SVG-20010904/DTD/svg10.dtd">
<svg version="1.0" xmlns="http://www.w3.org/2000/svg"
 width="339.000000pt" height="340.000000pt" viewBox="0 0 339.000000 340.000000"
 preserveAspectRatio="xMidYMid meet">

<g transform="translate(0.000000,340.000000) scale(0.100000,-0.100000)"
fill="#777777" stroke="none">
<path d="M110 3371 c-58 -31 -93 -83 -98 -146 -9 -108 -48 -70 838 -823 443
-376 811 -690 817 -696 10 -9 -181 -176 -803 -705 -626 -533 -820 -703 -836
-734 -44 -88 -7 -201 82 -248 44 -24 125 -25 168 -1 17 9 436 361 931 782 636
541 906 777 922 805 31 54 31 126 0 180 -16 28 -286 264 -922 805 -495 421
-914 773 -931 783 -43 23 -124 22 -168 -2z"/>
<path d="M1904 351 c-60 -27 -96 -80 -102 -146 -6 -71 2 -97 40 -140 60 -69
18 -65 753 -65 724 0 691 -3 747 57 77 81 61 218 -34 280 l-42 28 -660 2
c-629 3 -663 2 -702 -16z"/>
</g>
</svg>
