<?xml version="1.0" standalone="no"?>
<!DOCTYPE svg PUBLIC "-//W3C//DTD SVG 20010904//EN"
 "http://www.w3.org/TR/2001/REC-SVG-20010904/DTD/svg10.dtd">
<svg version="1.0" xmlns="http://www.w3.org/2000/svg"
 width="468.000000pt" height="340.000000pt" viewBox="0 0 468.000000 340.000000"
 preserveAspectRatio="xMidYMid meet">

<g transform="translate(0.000000,340.000000) scale(0.100000,-0.100000)"
fill="#777777" stroke="none">
<path d="M900 3389 c-105 -8 -255 -32 -338 -54 -114 -29 -132 -62 -132 -237
l0 -123 -83 -28 c-132 -46 -293 -116 -312 -137 -14 -16 -20 -48 -26 -153 -10
-161 -12 -2222 -2 -2438 l6 -154 33 -33 c50 -50 88 -45 312 37 233 86 411 141
617 191 287 70 324 74 595 74 220 0 253 -2 321 -21 105 -29 197 -76 272 -138
86 -71 95 -75 182 -75 87 0 96 4 182 75 75 62 167 109 272 138 68 19 101 21
321 21 213 1 261 -2 363 -22 268 -51 569 -139 940 -276 130 -48 177 -48 223
-2 l34 34 -2 1360 c-3 1311 -4 1361 -22 1380 -20 23 -178 92 -313 139 l-83 28
0 123 c0 185 -20 214 -168 246 -461 98 -884 59 -1235 -114 -155 -77 -261 -153
-392 -285 l-120 -120 -120 120 c-72 72 -155 143 -207 179 -320 213 -691 301
-1118 265z m541 -192 c192 -46 395 -138 525 -238 69 -53 200 -182 253 -249
l41 -52 0 -1130 0 -1131 -62 59 c-215 205 -488 338 -807 396 -164 29 -442 29
-636 -1 -77 -11 -143 -21 -147 -21 -5 0 -8 528 -8 1174 l0 1175 53 10 c48 10
139 25 212 35 17 2 129 3 250 1 194 -3 233 -6 326 -28z m2536 5 c56 -11 107
-23 113 -27 7 -4 10 -374 10 -1176 0 -1107 -1 -1169 -17 -1169 -10 0 -55 7
-100 14 -144 26 -389 38 -520 27 -377 -33 -715 -174 -952 -397 l-81 -76 0
1130 0 1130 38 49 c48 61 150 163 222 225 156 132 394 236 645 283 119 21 503
14 642 -13z m-3547 -1422 c0 -1113 -3 -1053 56 -1099 35 -27 83 -27 232 1 101
20 150 23 357 23 266 -1 352 -13 532 -76 90 -32 242 -105 278 -133 19 -15 17
-16 -25 -8 -25 4 -162 7 -305 6 -224 0 -276 -3 -378 -22 -252 -48 -674 -169
-920 -266 l-87 -34 0 1264 0 1265 38 16 c58 25 206 82 215 83 4 0 7 -459 7
-1020z m4041 944 l46 -17 8 -1016 c4 -559 4 -1129 0 -1267 l-7 -251 -127 48
c-419 157 -837 260 -1133 278 -128 8 -368 0 -440 -14 -32 -6 -32 -5 -13 10 35
29 186 101 278 134 180 63 266 75 532 76 207 0 256 -3 357 -23 149 -28 197
-28 232 -1 59 46 56 -9 56 1046 0 532 3 991 6 1020 l7 52 76 -29 c42 -15 97
-36 122 -46z"/>
</g>
</svg>
