<?xml version="1.0" standalone="no"?>
<!DOCTYPE svg PUBLIC "-//W3C//DTD SVG 20010904//EN"
 "http://www.w3.org/TR/2001/REC-SVG-20010904/DTD/svg10.dtd">
<svg version="1.0" xmlns="http://www.w3.org/2000/svg"
 width="374.000000pt" height="340.000000pt" viewBox="0 0 374.000000 340.000000"
 preserveAspectRatio="xMidYMid meet">

<g transform="translate(0.000000,340.000000) scale(0.100000,-0.100000)"
fill="#777777" stroke="none">
<path d="M0 1700 l0 -1700 575 0 575 0 0 205 0 205 -365 0 -365 0 0 1285 0
1285 350 0 350 0 0 210 0 210 -560 0 -560 0 0 -1700z"/>
<path d="M2630 3190 l0 -210 350 0 350 0 0 -1285 0 -1285 -365 0 -365 0 0
-205 0 -205 570 0 570 0 0 1700 0 1700 -555 0 -555 0 0 -210z"/>
<path d="M1335 1342 c-84 -30 -129 -91 -130 -178 0 -49 5 -68 27 -101 69 -104
227 -109 303 -8 60 78 38 206 -45 261 -38 26 -118 39 -155 26z"/>
<path d="M1780 1328 c-65 -33 -103 -92 -103 -161 0 -65 21 -106 76 -151 35
-28 46 -31 107 -31 61 0 72 3 107 31 55 45 76 86 76 151 0 44 -6 62 -29 96
-34 49 -102 87 -154 87 -20 0 -56 -10 -80 -22z"/>
<path d="M2278 1341 c-73 -24 -128 -100 -128 -177 0 -44 28 -111 56 -136 84
-74 222 -57 282 35 22 33 27 52 27 101 -1 69 -26 117 -81 155 -35 24 -114 35
-156 22z"/>
</g>
</svg>
