<?xml version="1.0" standalone="no"?>
<!DOCTYPE svg PUBLIC "-//W3C//DTD SVG 20010904//EN"
 "http://www.w3.org/TR/2001/REC-SVG-20010904/DTD/svg10.dtd">
<svg version="1.0" xmlns="http://www.w3.org/2000/svg"
 width="382.000000pt" height="340.000000pt" viewBox="0 0 382.000000 340.000000"
 preserveAspectRatio="xMidYMid meet">

<g transform="translate(0.000000,340.000000) scale(0.100000,-0.100000)"
fill="#777777" stroke="none">
<path d="M3071 3389 c-77 -15 -169 -65 -235 -129 -74 -71 -110 -132 -132 -226
-64 -274 135 -547 417 -571 300 -25 555 258 494 550 -21 99 -60 171 -130 242
-117 117 -263 164 -414 134z"/>
<path d="M1220 2780 c-49 -7 -60 -14 -97 -56 -34 -38 -43 -57 -49 -100 -3 -28
-3 -67 1 -85 9 -42 50 -103 82 -124 39 -26 174 -35 543 -35 l345 0 -430 -429
-430 -429 -505 -7 c-459 -7 -508 -9 -540 -26 -88 -45 -135 -124 -134 -230 0
-86 39 -159 108 -207 l48 -32 608 0 607 0 44 32 c24 17 122 108 217 202 l173
170 149 -149 150 -150 -369 -376 c-203 -206 -376 -390 -385 -407 -40 -77 -7
-214 68 -279 63 -56 90 -65 180 -61 67 2 87 7 111 26 57 45 641 620 803 791
190 201 208 230 199 329 -4 36 -14 77 -23 91 -10 14 -83 93 -163 174 l-145
148 189 189 189 189 102 -99 c73 -70 114 -102 141 -109 23 -7 162 -11 349 -11
327 0 346 2 401 47 83 69 86 233 5 306 -45 41 -86 46 -350 47 l-254 0 -321
315 c-177 173 -333 323 -347 332 -23 17 -70 18 -620 19 -327 1 -620 -2 -650
-6z"/>
</g>
</svg>
