<?xml version="1.0" standalone="no"?>
<!DOCTYPE svg PUBLIC "-//W3C//DTD SVG 20010904//EN"
 "http://www.w3.org/TR/2001/REC-SVG-20010904/DTD/svg10.dtd">
<svg version="1.0" xmlns="http://www.w3.org/2000/svg"
 width="807.000000pt" height="526.000000pt" viewBox="0 0 807.000000 526.000000"
 preserveAspectRatio="xMidYMid meet">

<g transform="translate(0.000000,526.000000) scale(0.100000,-0.100000)"
fill="#777777" stroke="none">
<path d="M317 5106 c-48 -18 -83 -49 -110 -101 -20 -37 -22 -57 -25 -240 -1
-110 4 -965 11 -1900 l13 -1700 21 -40 c26 -50 57 -79 108 -102 37 -16 102
-18 895 -23 l855 -5 42 -22 c53 -29 89 -76 102 -133 6 -25 11 -126 11 -225 0
-100 5 -198 11 -220 15 -52 82 -119 134 -134 40 -11 179 -16 1345 -51 371 -11
1035 -32 1475 -45 440 -14 1104 -34 1475 -45 371 -12 794 -24 940 -29 146 -4
265 -8 266 -7 3 3 35 4366 34 4674 l0 352 -1077 0 c-593 0 -2295 2 -3783 5
-2355 5 -2710 4 -2743 -9z m749 -122 c12 -3 31 -25 44 -50 67 -136 -28 -294
-177 -294 -59 0 -81 13 -104 63 -48 106 -5 228 96 273 31 14 104 18 141 8z
m6357 -4168 c43 -17 93 -76 108 -125 16 -54 4 -121 -31 -170 -36 -49 -61 -66
-122 -82 -65 -18 -119 1 -179 61 -50 51 -65 97 -53 168 19 119 163 196 277
148z"/>
</g>
</svg>
